<?xml version="1.0" encoding="UTF-8" standalone="no"?>
<svg
   width="25"
   height="18"
   viewBox="0 0 25 18"
   fill="none"
   version="1.1"
   id="svg4"
   sodipodi:docname="arrow-l.svg"
   inkscape:version="1.1.1 (3bf5ae0d25, 2021-09-20)"
   xmlns:inkscape="http://www.inkscape.org/namespaces/inkscape"
   xmlns:sodipodi="http://sodipodi.sourceforge.net/DTD/sodipodi-0.dtd"
   xmlns="http://www.w3.org/2000/svg"
   xmlns:svg="http://www.w3.org/2000/svg">
  <defs
     id="defs8">
    <pattern
       inkscape:collect="always"
       patternUnits="userSpaceOnUse"
       width="2"
       height="1"
       patternTransform="translate(0,0) scale(10,10)"
       id="Strips1_1"
       inkscape:stockid="Stripes 1:1">
      <rect
         style="fill:black;stroke:none"
         x="0"
         y="-0.5"
         width="1"
         height="2"
         id="rect2215" />
    </pattern>
  </defs>
  <sodipodi:namedview
     id="namedview6"
     pagecolor="#ffffff"
     bordercolor="#666666"
     borderopacity="1.0"
     inkscape:pageshadow="2"
     inkscape:pageopacity="0.0"
     inkscape:pagecheckerboard="0"
     showgrid="false"
     inkscape:zoom="28.888889"
     inkscape:cx="12.513462"
     inkscape:cy="9.0173077"
     inkscape:window-width="1366"
     inkscape:window-height="705"
     inkscape:window-x="-8"
     inkscape:window-y="-8"
     inkscape:window-maximized="1"
     inkscape:current-layer="svg4" />
  <path
     opacity="0.3"
     fill-rule="evenodd"
     clip-rule="evenodd"
     d="M8.37629 1.32924C8.55813 1.12142 8.53707 0.805538 8.32925 0.623697C8.12143 0.441856 7.80555 0.462915 7.62371 0.670734L0.625438 8.66876C0.547382 8.75697 0.5 8.87294 0.5 8.99999C0.5 9.12711 0.547441 9.24315 0.625585 9.33138L7.62371 17.3292C7.80555 17.5371 8.12144 17.5581 8.32925 17.3763C8.53707 17.1944 8.55813 16.8786 8.37629 16.6707L2.10189 9.49999L24 9.49999C24.2761 9.49999 24.5 9.27613 24.5 8.99999C24.5 8.72384 24.2761 8.49999 24 8.49999L2.10189 8.49999L8.37629 1.32924Z"
     fill="#FFD412"
     id="path2"
     style="stroke:url(#Strips1_1);stroke-opacity:0;fill:#ffd412;fill-opacity:1" />
</svg>
