<svg width="32" height="38" viewBox="0 0 32 38" fill="none" xmlns="http://www.w3.org/2000/svg">
<g clip-path="url(#clip0_631_1760)">
<path d="M0 0V29.9H32V0H0ZM8.64662 23.7902C8.55467 23.965 8.15007 24.3777 8.16846 24.8095C8.18685 25.2413 8.21407 25.3052 8.4171 25.4888C8.4171 25.4888 8.24202 26.0851 8.17802 26.3333C8.11402 26.5815 7.86538 27.5538 7.81903 27.7286C7.77269 27.9033 7.6903 28.2338 7.71752 28.4078L7.68956 28.4813H1.24469V1.12577H15.5895C15.5895 1.12577 14.7891 1.70444 14.6148 2.4388C14.4405 3.17315 14.4765 3.69602 14.606 4.04557C14.606 4.04557 14.606 4.22035 14.5045 4.34812C14.4029 4.4759 14.4125 4.08229 13.9439 4.10946C13.4753 4.13663 12.8221 3.99049 11.9489 5.55981C11.9489 5.55981 11.6634 6.28536 11.6178 6.90956C11.5722 7.53376 11.5163 8.38708 11.5994 8.60739C11.6826 8.8277 10.7079 8.77262 10.7079 8.77262C10.7079 8.77262 10.4592 8.83724 10.4504 8.93785C10.4416 9.03846 10.4504 9.57087 10.4592 9.87416C10.468 10.1774 10.3945 10.3515 10.3673 10.6364C10.34 10.9213 10.1554 11.1784 10.1834 11.4993C10.2113 11.8202 10.7167 11.8386 11.0109 11.8665C11.3052 11.8944 11.2772 11.9583 11.1125 12.0045C10.9477 12.0508 10.4592 12.0596 10.4783 12.6471C10.4975 13.2346 10.6806 14.6298 10.727 15.0058C10.7733 15.3818 10.4416 15.0426 10.4783 15.1527C10.5151 15.2629 10.3496 15.0881 10.2488 15.5111C10.148 15.9341 10.2768 15.8599 10.3224 15.915C10.368 15.97 10.4239 15.97 10.4239 15.97L10.2856 16.1624L10.24 16.3828L10.3136 16.5384L10.3871 16.6031C10.3871 16.6031 10.2032 16.805 10.396 17.0253C10.5887 17.2456 10.4975 17.1443 10.4783 17.3558C10.4592 17.5673 10.0737 19.1366 10.1753 19.8247C10.2768 20.5128 9.93618 20.7243 9.78906 21.0276C9.64193 21.3308 8.78713 22.6615 8.82391 22.9736C8.86069 23.2857 8.74152 23.6162 8.64883 23.7902H8.64662ZM17.87 27.1594C17.6581 27.5721 17.5941 28.4813 17.5941 28.4813H9.91559C9.91559 28.4813 9.83319 28.4078 9.76846 28.2426C9.65811 28.0774 9.74051 26.9487 9.76846 26.7372C9.79641 26.5257 10.0348 25.7546 10.2466 25.7179C10.4585 25.6812 10.7432 25.314 10.8072 25.057C10.8712 24.7999 11.0926 24.2404 11.2302 24.0377C11.3677 23.835 11.598 22.9545 11.598 22.9545C11.442 22.4405 11.4692 22.7621 11.6259 22.2113C11.7826 21.6606 12.0761 21.6606 12.1497 21.5688C12.2233 21.477 12.2512 21.1194 12.4528 20.9901C12.6543 20.8609 12.8486 20.7786 12.9398 20.4482C12.9766 19.796 12.9949 19.7417 13.2252 19.2548C13.593 17.814 13.7857 18.392 13.9741 17.814C14.1624 17.2353 14.2087 17.3279 14.2087 17.3279L14.3926 17.6671C14.5766 18.0064 14.6045 18.016 14.8156 18.0343C15.0268 18.0527 15.1651 18.0527 15.257 18.1724C15.349 18.2921 15.5513 18.6042 15.744 18.9346C16.8842 20.6971 16.7003 20.3211 17.0314 20.3578C17.3624 20.3945 17.4727 20.3857 17.6199 20.5502C17.7854 20.7155 17.7486 21.5137 17.7023 21.6518C17.5463 21.7619 17.4632 22.0373 17.4632 22.0373C17.4632 22.0373 17.5183 23.5148 17.5367 23.6896C17.4632 23.8453 17.7295 24.4519 17.7295 24.4519L17.7751 24.8558C18.0414 25.0026 17.9958 25.5813 18.0142 25.9118C18.0326 26.2422 18.0789 26.7475 17.867 27.1602L17.87 27.1594ZM30.7862 28.4813H22.0947C22.0947 28.4813 22.0211 28.4262 21.9564 28.2522C21.8917 28.0781 21.1244 27.7748 20.8942 27.7153C20.6646 27.6559 20.2093 26.9075 20.0526 26.7467C19.9511 26.5999 19.9423 26.4853 19.9423 26.4853L19.8547 24.9982C19.8547 24.9982 19.8407 24.8881 19.9099 24.8102C19.979 24.7324 20.1026 24.5348 20.0894 24.374C20.0754 24.2132 20.0158 23.5618 19.979 23.4788C19.9423 23.3959 19.9562 23.2585 19.9511 23.1851C19.9459 23.1117 20.0386 22.8958 20.0614 22.8179C20.0842 22.7401 20.2961 21.1149 20.2777 21.0099C20.2593 20.9042 20.2689 20.0736 20.1306 19.9862C19.9923 19.8989 20.1026 19.5133 20.057 19.4494C20.0114 19.3855 19.8451 19.4722 19.7856 19.257C19.726 19.0411 19.0955 17.5636 19.0955 17.5636L18.677 16.7007C18.677 16.7007 17.5456 15.0807 17.4124 14.9566C17.2793 14.8325 17.2469 14.057 17.3668 13.8595C17.486 13.662 17.5463 13.8918 17.5595 13.8918C17.5728 13.8918 17.8817 14.0894 18.0149 13.9513C18.148 13.8132 18.4975 13.272 18.5019 13.0657C18.5063 12.8593 18.6034 10.8119 18.5387 10.7157C18.5159 10.6195 18.4607 10.2751 18.0929 10.1466C17.7251 10.0181 18.1017 9.88076 18.0929 9.68763C18.084 9.49449 18.0281 9.35717 18.162 9.44896C18.2959 9.54076 19.8032 10.3757 20.0011 10.4036C20.199 10.4315 20.2358 10.4359 20.3733 10.4359C20.5109 10.4359 20.672 10.6056 20.7323 10.5828C20.7971 10.5828 21.0266 10.5916 21.5231 10.1789C22.0197 9.7662 22.1028 9.81173 22.222 9.38948C22.3411 8.96722 22.3044 8.36579 22.567 8.3019C22.8296 8.23801 23.054 8.47153 22.7833 7.60867C22.6545 6.77811 22.6869 6.74139 22.8061 6.73184C22.912 6.67677 22.8796 6.69072 23.1187 6.42415C23.3578 6.15758 23.3622 6.14436 23.3762 6.11645C23.3902 6.08855 23.3902 5.99749 23.3902 5.99749C23.3902 5.99749 23.4637 5.95196 23.4865 5.93286C23.5093 5.91377 23.6248 5.87779 23.6476 5.87779C23.6704 5.87779 23.6108 5.81316 23.7212 5.80876C24.1346 5.80876 26.1995 5.82271 26.1995 5.82271V5.58845C26.1995 5.58845 26.204 5.51061 26.2547 5.51502C26.3055 5.51942 26.3467 5.52383 26.3651 5.54733C26.3834 5.57009 26.88 5.56128 26.88 5.56128C26.88 5.56128 26.9675 5.48344 27.1235 5.48344C27.2794 5.48344 28.6595 5.48784 28.6595 5.48784C28.6595 5.48784 28.6919 5.61636 28.761 5.61636C28.8302 5.61636 28.9449 5.63472 28.9405 5.56128C29.17 5.56128 29.7681 5.55687 29.7681 5.55687C29.7681 5.55687 29.8005 5.55687 29.796 5.35933C29.8005 5.1897 29.8049 5.21687 29.2215 5.21687C29.0097 5.21687 28.9685 5.21246 28.9685 5.21246C28.9685 5.21246 29.0008 5.13903 28.8669 5.13903C28.7331 5.13903 28.6691 5.20806 28.6691 5.24918C28.6691 5.2903 28.6095 5.2859 28.6095 5.2859L27.0463 5.27194C27.0463 5.27194 26.9683 5.26313 26.9955 5.03328C27.0227 4.80342 26.9308 4.71163 26.8572 4.7623C26.7836 4.81297 26.7285 4.83574 26.7189 4.84969C26.7101 4.86364 26.6365 4.77625 26.6269 4.69841C26.6181 4.62057 26.613 3.87667 26.613 3.86271C26.613 3.84876 26.5718 3.73861 26.521 3.77092C26.4703 3.80323 26.3827 3.75697 26.3695 3.81204C26.3562 3.86712 26.3651 4.88567 26.3651 4.88567C26.3651 4.88567 26.2827 4.9503 26.2363 4.87686C26.19 4.80342 26.1444 4.84455 26.1539 4.75789C26.1628 4.67051 26.0988 4.60662 26.0988 4.60662H20.1585C20.1585 4.60662 20.1401 4.32169 20.0938 4.34078C20.0474 4.35987 19.7348 4.36869 19.7348 4.36869L19.726 3.90017C19.726 3.90017 19.698 3.76211 19.5972 3.84509C19.5053 3.8539 19.5149 4.2578 19.5053 4.30406C19.4957 4.35033 19.4229 4.34959 19.4229 4.34959V4.51482L19.0919 4.55154C19.0919 4.55154 18.6417 4.63379 18.5769 4.68005C18.5122 4.72632 18.2738 4.74468 18.2738 4.74468L18.1635 4.76303C18.1635 4.76303 18.0899 4.56109 18.0899 4.53392C18.0899 4.50968 18.0833 4.36134 18.0811 4.32242C18.0774 4.31141 18.0723 4.29231 18.062 4.25853C18.0252 4.13002 18.0436 4.01987 18.0436 4.01987C18.0436 4.01987 18.6233 3.80837 18.724 3.62478C18.8248 3.44119 18.8256 2.74356 18.7329 2.45862C18.6402 2.17369 18.5857 2.09145 18.5857 2.01801C18.5857 1.94458 18.5578 1.70591 18.5578 1.70591C18.5578 1.70591 18.1988 1.52232 18.0245 1.46724C17.8501 1.41217 17.5919 1.21903 17.5919 1.21903L17.6287 1.12724H30.784V28.4805L30.7862 28.4813Z" fill="#FF6A13"/>
<path d="M1.64931 36.6135V33.2722H6.55966C6.55966 33.2722 6.52287 32.3087 5.59451 32.0238C5.40177 31.9783 5.02439 31.9783 4.78531 31.9783H1.2815C1.2815 31.9783 0.0677022 32.0796 0.0493114 33.3089C0.0309206 34.5382 0.0493114 36.6135 0.0493114 36.6135C0.0493114 36.6135 -0.0889876 37.9904 1.98991 37.9904H5.18991C5.18991 37.9904 6.12784 37.9537 6.51405 37.0446C6.58761 36.7964 6.55966 36.6128 6.55966 36.6128H1.64931V36.6135Z" fill="#FF6A13"/>
<path d="M12.3587 34.3187C9.97081 34.3187 9.55076 34.3187 9.55076 34.3187H9.20722V33.2296H14.3324C14.3324 33.2296 14.2588 31.9753 12.9222 31.9783C11.5855 31.9812 9.02331 31.9783 9.02331 31.9783C9.02331 31.9783 7.71168 32.0179 7.71168 33.2296V34.4413C7.71168 34.4413 7.57706 35.6288 9.52648 35.6405C11.4759 35.6523 12.9714 35.628 12.9714 35.628V36.6804L7.70947 36.6561C7.70947 36.6561 7.80952 37.4397 8.32446 37.7209C8.52087 37.8436 8.91297 37.9905 8.91297 37.9905H13.0568C13.0568 37.9905 14.4177 37.8928 14.4302 36.6319C14.4758 35.0435 14.4214 34.2452 12.3579 34.3187H12.3587Z" fill="#FF6A13"/>
<path d="M16.4532 33.4103H15.488V34.4017H16.4532V33.4103Z" fill="#FF6A13"/>
<path d="M16.4532 35.4665H15.488V36.5129H16.4532V35.4665Z" fill="#FF6A13"/>
<path d="M24.178 33.1804C24.178 33.1804 24.178 33.107 24.178 33.0056C24.178 32.9043 24.0397 32.7398 23.8558 32.4093C23.5983 32.0972 23.0098 31.9776 23.0098 31.9776C23.0098 31.9776 19.9202 31.9592 18.7248 31.9776C17.5294 31.9959 17.4558 33.1804 17.4558 33.1804V36.9903C17.6677 37.8436 18.5504 37.9949 18.5504 37.9949L18.9734 37.9905C18.9734 37.9905 21.4466 37.9993 22.8267 37.9905C24.2067 37.9816 24.1788 36.7332 24.1788 36.7332V34.5214C24.1788 34.5214 20.3814 34.4935 20.004 34.4935C19.6267 34.4935 19.7554 34.4846 19.9305 34.9253C20.1879 35.4026 20.8412 35.5127 20.8412 35.5127L22.873 35.5216L22.8818 36.7979H18.7439V33.1812H24.1788L24.178 33.1804Z" fill="#FF6A13"/>
<path d="M31.8772 33.3515C31.8647 31.8953 30.4184 31.9695 30.4184 31.9695H26.5806C26.5806 31.9695 26.4725 31.982 26.3356 32.0297C26.2253 32.0422 26.0046 32.1523 25.7346 32.3844C25.4647 32.6172 25.3543 33.2414 25.3543 33.2414C25.3543 33.2414 25.3668 34.8445 25.3543 36.5093C25.3418 38.1741 27.1441 37.9941 27.1441 37.9941C27.1441 37.9941 28.0636 37.9897 30.0741 37.9941C32.0846 37.9985 31.8764 36.3741 31.8764 36.3741C31.8764 36.3741 31.8889 34.8078 31.8764 33.3508L31.8772 33.3515ZM30.6266 36.8272H26.6785V33.082H30.6266V36.8272Z" fill="#FF6A13"/>
</g>
<defs>
<clipPath id="clip0_631_1760">
<rect width="32" height="38" fill="white"/>
</clipPath>
</defs>
</svg>
