<svg width="30" height="34" viewBox="0 0 30 34" fill="none" xmlns="http://www.w3.org/2000/svg">
<g clip-path="url(#clip0_631_1694)">
<path d="M2.71322 29.232C-0.0482174 29.2041 0.00995308 29.1676 -7.63467e-05 29.2991C-0.0141175 29.4824 0.334906 29.3436 0.418485 29.6391V29.6418C0.427177 29.9047 0.406449 33.2443 0.405112 33.4521C0.402438 33.4734 0.378367 33.6016 0.237955 33.6773C0.197169 33.6992 0.17711 33.7463 0.188477 33.7908C0.199843 33.8353 0.24063 33.8665 0.286765 33.8665H0.308161C0.734077 33.8665 1.30977 33.8785 1.63673 33.9376C1.8674 33.9787 2.0934 34 2.30803 34C3.97625 34 4.85617 32.7336 4.86219 31.4825C4.86754 30.4094 4.19757 29.2473 2.71322 29.232ZM1.26096 29.6145C4.20225 29.4273 4.25039 31.6359 3.80776 32.7164C3.57642 33.2821 2.7647 33.6202 2.11346 33.6202C1.71094 33.6202 1.41675 33.4933 1.28436 33.2636L1.26096 29.6145Z" fill="#FF6A13"/>
<path d="M6.61743 31.5768C6.61743 33.1526 7.91591 33.9774 9.199 33.9774C10.4821 33.9774 11.7652 33.0962 11.7652 31.4633C11.7652 28.3528 6.61743 28.2738 6.61743 31.5768ZM7.5388 31.5669C7.5388 30.4114 7.87378 29.4817 9.04789 29.4817C9.96926 29.4817 10.8077 30.422 10.8077 31.4573C10.8278 32.3876 10.6198 33.5179 9.5166 33.6235C8.37525 33.6221 7.70997 32.9289 7.5388 31.5695V31.5675V31.5669Z" fill="#FF6A13"/>
<path d="M17.338 29.1703C17.2364 29.2021 17.1133 29.224 17.0318 29.224C16.9502 29.224 13.9119 29.2194 13.7301 29.2194C13.6044 29.1543 13.4085 29.0746 13.3784 29.2121L13.2527 29.7805C13.242 29.8277 13.2674 29.8762 13.3122 29.8947C13.357 29.9133 13.4091 29.8981 13.4366 29.8576C13.4914 29.7752 13.5736 29.7128 13.688 29.6676C13.9815 29.6557 14.7705 29.6544 14.9436 29.6544L14.9256 33.4807C14.9256 33.486 14.9176 33.6188 14.7932 33.6939C14.7063 33.7463 14.7437 33.8805 14.846 33.8805C14.8467 33.8805 15.9265 33.8758 15.9272 33.8758C16.0335 33.8758 16.0676 33.7317 15.972 33.6846C15.8831 33.6407 15.8363 33.575 15.8289 33.4893C15.8249 33.3114 15.7981 30.2786 15.7921 29.6544L16.8974 29.6803C16.9074 29.6803 17.1408 29.6935 17.223 29.9246C17.239 29.9698 17.2858 29.9977 17.334 29.9904C17.4403 29.9744 17.4209 29.8981 17.4356 29.4233C17.459 29.3715 17.4777 29.2991 17.4697 29.2499C17.4604 29.1889 17.3982 29.151 17.3387 29.1696L17.338 29.1703Z" fill="#FF6A13"/>
<path d="M23.5008 32.4634C23.2287 32.4594 22.6624 32.4587 22.542 32.4587C22.538 32.4494 21.1834 29.1218 21.1834 29.1218C21.1466 29.0355 21.0289 29.0434 20.9961 29.1231L19.2256 33.4475C19.2256 33.4475 19.146 33.6055 18.9541 33.6965C18.8572 33.743 18.8906 33.8878 18.9976 33.8878C19.003 33.8878 19.8 33.8891 19.8 33.8891C19.9143 33.8891 19.9404 33.7304 19.8334 33.6932C19.7772 33.6653 19.7511 33.6255 19.7672 33.5657C19.824 33.3718 19.9758 32.9508 20.0126 32.8492L21.7791 32.8538L22.1261 33.6706C22.1275 33.6739 22.1315 33.6892 22.1194 33.7065C22.0606 33.7702 22.1054 33.8738 22.193 33.8751C22.2003 33.8751 23.2006 33.8891 23.2006 33.8891C23.2601 33.8891 23.3036 33.8419 23.3036 33.7882C23.3036 33.7437 23.2748 33.7065 23.2347 33.6932C23.1016 33.6294 23.0461 33.569 22.7051 32.8505C23.0067 32.8571 23.0635 32.7217 23.5115 32.6646C23.5643 32.6579 23.6024 32.6114 23.5998 32.559C23.5971 32.5065 23.5536 32.4647 23.5001 32.464L23.5008 32.4634ZM20.9219 30.4951L21.6333 32.4521L20.151 32.4693L20.9219 30.4951Z" fill="#FF6A13"/>
<path d="M29.806 32.8286C29.7084 33.0404 29.588 33.2483 29.2872 33.2602C29.1307 33.2662 28.2956 33.2994 27.7714 33.2954C30.9146 30.9141 30.0775 29.1218 28.2047 29.1218C27.7941 29.1218 27.3816 29.2201 27.0727 29.3914C27.0426 29.408 27.0232 29.4379 27.0212 29.4718C27.0132 29.5793 27.0346 29.7971 27.0834 30.1192C27.09 30.165 27.1275 30.1996 27.1736 30.2042C27.2191 30.2082 27.2632 30.181 27.2786 30.1378C27.4591 29.6378 27.8222 29.4591 28.1017 29.4591C28.5015 29.4591 28.9201 29.7998 28.9448 30.4519C29.001 31.9022 27.2224 33.2702 26.8239 33.6474C26.7564 33.7052 26.7036 33.7662 26.7591 33.8366C26.7591 33.9628 26.9202 33.9794 26.9563 33.8758C27.2987 33.8738 29.1554 33.8632 29.4991 33.8672C29.7485 33.8851 29.8715 33.741 29.8769 33.5803L29.9966 32.887C30.0166 32.7715 29.8535 32.7217 29.8047 32.8279L29.806 32.8286Z" fill="#FF6A13"/>
<path d="M28.2182 6.10341C28.1139 1.21259 28.1078 2.26978 28.2088 0.745092C28.2148 0.65478 28.1459 0.57642 28.055 0.570444C20.7222 0.0717329 20.444 0.0146235 19.8757 0.0146235C9.87168 0.0139594 15.1238 -0.148736 1.77058 0.63353C1.67965 0.638842 1.61078 0.715874 1.61546 0.806186C2.47598 17.2045 2.44456 14.5297 2.00527 25.4588C2.00193 25.5372 2.05542 25.6069 2.13231 25.6249C3.13191 25.8593 2.95472 25.767 5.28623 25.769C5.29024 25.7703 9.65504 25.2968 9.65905 25.2962C9.67978 25.2995 15.6954 26.2803 15.7162 26.2803C15.7208 26.2803 15.7255 26.2803 15.7302 26.2803C22.7802 25.6933 20.7596 25.8354 25.3076 25.585L27.9781 26.1216C28.0818 26.1422 28.1774 26.0625 28.176 25.9589C28.1185 20.6185 28.2188 6.10408 28.2188 6.10408L28.2182 6.10341ZM17.377 5.71427C17.3971 5.70962 17.4252 5.70232 17.4606 5.69302L19.3615 5.26736C20.335 5.02498 20.4788 4.96587 21.3126 4.57673C21.697 4.70955 22.7521 5.28927 23.0196 5.62197C23.1961 5.84244 23.1847 5.89158 23.1292 6.12732C23.1185 6.17248 23.1065 6.22494 23.0931 6.28603C23.0925 6.29002 23.0918 6.294 23.0911 6.29865L22.6732 9.54724C22.2593 9.56252 22.2252 9.53064 22.1109 9.42638C22.0634 9.38322 22.0053 9.32943 21.901 9.26037C21.2718 8.84134 19.2137 7.32861 18.5638 6.80798L17.2861 5.78865L17.2961 5.77869C17.3102 5.76474 17.3222 5.74681 17.3302 5.72888C17.3369 5.72423 17.3616 5.71759 17.377 5.71427ZM20.339 22.0721C20.3016 22.0349 4.36553 5.25607 4.35349 5.23283L5.74557 4.17232L25.2026 16.9668C25.0422 17.4244 24.978 17.9496 24.881 18.3859C24.5394 19.9259 24.0994 20.5999 23.4121 22.0635C22.4285 22.1027 20.4072 22.0947 20.339 22.0721ZM5.84186 17.5326C6.02105 17.1049 6.2671 16.417 6.47438 16.069C7.49203 16.7005 11.4677 20.6676 11.8134 21.2035C11.6221 21.2739 10.7991 21.3954 9.43306 21.938C8.56718 22.2813 7.74945 22.6067 6.9598 22.3404C6.8809 22.3138 6.67096 22.1372 6.36004 21.8703C5.79171 21.3828 5.2762 21.0315 4.97732 20.8562C4.46649 20.5567 4.54606 20.6198 5.84319 17.5339L5.84186 17.5326Z" fill="#FF6A13"/>
<path d="M3.64876 17.5671C3.52372 11.1755 3.66347 14.6572 2.92396 0.566437L1.77058 0.634171C1.67965 0.639484 1.61078 0.716515 1.61546 0.806827L2.22926 12.5069C2.35095 18.7564 2.38438 16.0178 2.0046 25.4595C2.00126 25.5378 2.05475 25.6076 2.13164 25.6255C2.69596 25.7576 2.92998 25.7875 3.32648 25.7875C3.31377 25.7457 3.3004 26.2112 3.64809 17.5678L3.64876 17.5671Z" fill="#FF6A13"/>
<path d="M12.6411 21.5634C12.6411 21.5634 13.3158 21.333 12.7608 20.7287C10.4982 18.2225 9.11946 17.3141 7.80962 15.8864C7.26201 15.2973 6.47437 16.0677 6.47437 16.0677C11.5947 20.5879 10.569 19.9338 11.4717 20.7991C11.5914 20.914 11.6863 21.005 11.8134 21.2015C11.79 21.2101 11.685 21.2367 11.5399 21.2726C9.40964 21.8065 9.09004 22.1691 8.13858 22.3716C9.02652 23.0908 10.5918 22.2135 11.7077 21.8317C11.9745 21.7407 12.3282 21.6438 12.6405 21.5628L12.6411 21.5634Z" fill="#FF6A13"/>
<path d="M26.1709 15.636L7.57035 3.8542C6.94719 3.45974 6.27522 3.64967 5.74634 4.17095L25.2027 16.9668C25.0423 17.4243 24.9781 17.9496 24.8811 18.3859C24.5395 19.9258 24.0995 20.5999 23.4122 22.0635C23.4122 22.0635 25.174 22.4001 25.7116 21.2154C26.9719 18.5512 26.6811 18.0485 26.9813 17.2072C26.9459 16.7324 27.012 16.1692 26.1709 15.6367V15.636Z" fill="#FF6A13"/>
<path d="M23.0931 6.28602C23.0924 6.29 23.0917 6.29399 23.0911 6.29864L22.6732 9.54723C22.6732 9.54723 24.3273 10.5619 24.5346 8.89379V8.89247L24.877 6.1459C24.877 6.14192 24.8783 6.13727 24.879 6.13329C24.8923 6.0702 24.9044 6.01707 24.9157 5.97059C24.9726 5.72954 24.9846 5.67907 24.8041 5.45395C24.6142 5.21754 23.763 4.59332 23.1292 4.18891C22.5307 3.79047 21.82 4.26993 21.82 4.26993C21.6428 4.40473 21.4843 4.52293 21.3125 4.57672C21.7471 4.80981 22.8483 5.40879 23.0195 5.62196C23.196 5.84243 23.1847 5.89157 23.1292 6.12731C23.1185 6.17247 23.1064 6.22493 23.0937 6.28602H23.0931Z" fill="#FF6A13"/>
</g>
<defs>
<clipPath id="clip0_631_1694">
<rect width="30" height="34" fill="white"/>
</clipPath>
</defs>
</svg>
