<svg width="22" height="22" viewBox="0 0 22 22" fill="none" xmlns="http://www.w3.org/2000/svg">
<path d="M19.1268 14.1015C18.5543 14.1007 17.983 14.0469 17.4204 13.9406C16.8309 13.8388 16.2627 13.6534 15.6834 13.515C15.4587 13.4562 15.2237 13.4494 14.996 13.4951C14.7683 13.5408 14.554 13.6377 14.3692 13.7787C13.6923 14.2827 13.0104 14.7837 12.3579 15.3182C12.0885 15.5402 11.9046 15.53 11.6058 15.3651C9.41309 14.1673 7.62836 12.3396 6.48125 10.1172C6.44466 10.0469 6.4101 9.99294 6.47413 9.91351C7.03517 9.18141 7.58502 8.44015 8.1491 7.7111C8.48552 7.27632 8.61764 6.80285 8.47637 6.2693C8.30359 5.61764 8.11454 4.97005 8.01697 4.30108C7.94249 3.72097 7.89737 3.13746 7.8818 2.55279C7.8677 2.17897 7.72394 1.82177 7.47525 1.54271C7.20795 1.23725 6.85629 1.08757 6.47108 1H2.40563C2.25318 1.04684 2.08751 1.02342 1.93607 1.10182C1.3913 1.37369 1.05082 1.78607 1 2.4082V3.79196C1.01251 4.33015 1.06585 4.8666 1.15957 5.39668C1.72074 9.02274 3.34853 12.3988 5.83484 15.0932C8.75547 18.2648 12.6922 20.312 16.962 20.8798C17.8031 20.978 18.6502 21.0161 19.4968 20.9938C19.6925 21.0002 19.8871 20.9608 20.0649 20.8787C20.6087 20.6079 20.9532 20.1976 21 19.5724V15.5127C20.7784 14.4843 20.0355 14.078 19.1268 14.1015Z" stroke="white"/>
</svg>
