<svg width="215" height="46" viewBox="0 0 215 46" fill="none" xmlns="http://www.w3.org/2000/svg">
<g clip-path="url(#clip0_689_461)">
<path fill-rule="evenodd" clip-rule="evenodd" d="M191.314 0.664339H182.928V45.2846H214.993V37.7724H191.307V0.664339H191.314ZM155.035 23.6753V31.1874H166.362C164.212 35.5677 159.912 38.1082 152.849 38.1447H85.5444C74.7018 38.1447 70.1598 32.4504 70.1598 22.9964C70.1598 13.5423 74.7018 7.85526 85.5444 7.85526H152.835C164.582 7.89906 169.117 12.9072 169.117 12.9072L175.011 7.90636C175.011 7.90636 168.369 0.0657039 152.864 0C152.807 0 85.6084 0 85.5515 0C70.9785 0 61.5242 10.3009 61.5242 23.0037C61.5242 35.7064 70.9785 46 85.5444 46H152.835C159.05 45.9708 164.325 44.0508 168.319 40.8824V45.3138H176.706V23.6826H155.042L155.035 23.6753ZM41.0992 18.8424H23.3581C11.2768 18.8132 10.629 16.4479 10.629 13.6372C10.629 10.8265 14.1316 8.05237 21.2152 8.05237C21.3719 8.05237 38.9349 8.05237 39.0987 8.05237C46.0257 8.19108 52.7818 11.3668 52.7818 11.3668L55.6508 3.91303C55.6508 3.91303 49.4286 0.0219013 39.3123 0.0219013C39.1485 0.0219013 21.5783 0.0219013 21.4146 0.0219013C10.3798 0.16791 2.69106 4.97159 2.69106 14.7615C2.69106 23.011 8.55728 26.851 19.3002 26.851H37.0127C47.4922 26.8875 50.0267 28.8659 50.0267 32.4942C50.0267 36.1225 45.9545 37.8527 39.0488 37.933C38.8922 37.933 21.322 37.933 21.1583 37.933C13.9608 37.933 3.43146 32.8665 3.43146 32.8665L0 40.2254C0 40.2254 10.2445 45.8029 21.322 46C21.5142 46 39.12 46 39.3123 46C50.6104 46 57.8934 40.532 57.8934 32.611C57.8934 24.69 52.0058 18.8497 41.1063 18.8497L41.0992 18.8424Z" fill="#E2FF31"/>
<path d="M104.958 10.8337L110.889 16.8712L104.88 22.9817L110.889 29.0994L104.958 35.1296L98.9499 29.0191L92.9413 35.1296L87.011 29.0994L93.0196 22.9817L87.011 16.8712L92.9413 10.8337L98.9499 16.9515L104.958 10.8337Z" fill="white"/>
<path d="M137.401 10.8337L143.331 16.8712L137.322 22.9817L143.331 29.0994L137.401 35.1296L131.392 29.0191L125.383 35.1296L119.453 29.0994L125.462 22.9817L119.453 16.8712L125.383 10.8337L131.392 16.9515L137.401 10.8337Z" fill="white"/>
</g>
<defs>
<clipPath id="clip0_689_461">
<rect width="215" height="46" fill="white"/>
</clipPath>
</defs>
</svg>
