<svg width="112" height="24" viewBox="0 0 112 24" fill="none" xmlns="http://www.w3.org/2000/svg">
<path fill-rule="evenodd" clip-rule="evenodd" d="M99.6615 0.346612H95.2927V23.6267H111.996V19.7073H99.6577V0.346612H99.6615ZM80.7624 12.3523V16.2717H86.6628C85.5428 18.5571 83.3028 19.8826 79.6238 19.9016H44.5626C38.9144 19.9016 36.5483 16.9306 36.5483 11.9981C36.5483 7.06555 38.9144 4.0984 44.5626 4.0984H79.6164C85.7356 4.12125 88.098 6.73417 88.098 6.73417L91.1687 4.12506C91.1687 4.12506 87.7086 0.0342803 79.6313 0C79.6016 0 44.596 0 44.5664 0C36.9748 0 32.0498 5.37439 32.0498 12.0019C32.0498 18.6294 36.9748 24 44.5626 24H79.6164C82.854 23.9848 85.6021 22.983 87.6826 21.3299V23.642H92.0514V12.3561H80.7661L80.7624 12.3523ZM21.4098 9.83082H12.1679C5.87444 9.81558 5.53695 8.5815 5.53695 7.11506C5.53695 5.64863 7.36159 4.20124 11.0517 4.20124C11.1332 4.20124 20.2824 4.20124 20.3677 4.20124C23.9762 4.27361 27.4956 5.93049 27.4956 5.93049L28.9902 2.04158C28.9902 2.04158 25.7489 0.0114268 20.4789 0.0114268C20.3936 0.0114268 11.2408 0.0114268 11.1555 0.0114268C5.40715 0.0876051 1.40185 2.59387 1.40185 7.70163C1.40185 12.0057 4.45775 14.0092 10.054 14.0092H19.2811C24.7401 14.0282 26.0604 15.0605 26.0604 16.9535C26.0604 18.8465 23.9391 19.7492 20.3417 19.7911C20.2601 19.7911 11.1073 19.7911 11.022 19.7911C7.27258 19.7911 1.78755 17.1478 1.78755 17.1478L0 20.9871C0 20.9871 5.33669 23.8972 11.1073 24C11.2074 24 20.3788 24 20.4789 24C26.3645 24 30.1584 21.1471 30.1584 17.0144C30.1584 12.8818 27.0914 9.83463 21.4135 9.83463L21.4098 9.83082Z" fill="#272727"/>
<path d="M54.6761 5.65247L57.7653 8.80244L54.6353 11.9905L57.7653 15.1824L54.6761 18.3285L51.546 15.1405L48.4159 18.3285L45.3267 15.1824L48.4567 11.9905L45.3267 8.80244L48.4159 5.65247L51.546 8.84434L54.6761 5.65247Z" fill="white"/>
<path d="M71.5762 5.65247L74.6655 8.80244L71.5354 11.9905L74.6655 15.1824L71.5762 18.3285L68.4461 15.1405L65.3161 18.3285L62.2268 15.1824L65.3569 11.9905L62.2268 8.80244L65.3161 5.65247L68.4461 8.84434L71.5762 5.65247Z" fill="white"/>
</svg>
