<svg width="63" height="14" viewBox="0 0 63 14" fill="none" xmlns="http://www.w3.org/2000/svg">
<g clip-path="url(#clip0_732_388)">
<path fill-rule="evenodd" clip-rule="evenodd" d="M55.9171 0.97368H53.4889V13.0537H62.7728V11.02H55.915V0.97368H55.9171ZM45.4129 7.20345V9.23722H48.6924C48.0699 10.4231 46.8249 11.1109 44.7801 11.1208H25.293C22.1537 11.1208 20.8386 9.57914 20.8386 7.01964C20.8386 4.46014 22.1537 2.92048 25.293 2.92048H44.776C48.1771 2.93234 49.4901 4.28819 49.4901 4.28819L51.1968 2.93432C51.1968 2.93432 49.2737 0.811611 44.7842 0.793823C44.7677 0.793823 25.3115 0.793823 25.295 0.793823C21.0756 0.793823 18.3383 3.58259 18.3383 7.02162C18.3383 10.4606 21.0756 13.2474 25.293 13.2474H44.776C46.5755 13.2395 48.1029 12.7197 49.2592 11.8619V13.0616H51.6874V7.20543H45.415L45.4129 7.20345ZM12.4245 5.89504H7.28789C3.78994 5.88713 3.60236 5.24676 3.60236 4.48583C3.60236 3.7249 4.6165 2.97385 6.66745 2.97385C6.7128 2.97385 11.7979 2.97385 11.8453 2.97385C13.8509 3.0114 15.8071 3.87116 15.8071 3.87116L16.6378 1.8532C16.6378 1.8532 14.8362 0.799753 11.9072 0.799753C11.8598 0.799753 6.77258 0.799753 6.72517 0.799753C3.53022 0.839282 1.30406 2.13979 1.30406 4.7902C1.30406 7.02359 3.00253 8.0632 6.11297 8.0632H11.2414C14.2756 8.07309 15.0094 8.6087 15.0094 9.591C15.0094 10.5733 13.8303 11.0417 11.8309 11.0635C11.7856 11.0635 6.69837 11.0635 6.65096 11.0635C4.56703 11.0635 1.51843 9.6918 1.51843 9.6918L0.524902 11.6841C0.524902 11.6841 3.49105 13.1941 6.69837 13.2474C6.75402 13.2474 11.8515 13.2474 11.9072 13.2474C15.1784 13.2474 17.2871 11.7671 17.2871 9.62262C17.2871 7.47818 15.5824 5.89702 12.4266 5.89702L12.4245 5.89504Z" fill="white"/>
<path d="M30.9142 3.72687L32.6312 5.36139L30.8915 7.01568L32.6312 8.67194L30.9142 10.3045L29.1745 8.6502L27.4348 10.3045L25.7178 8.67194L27.4575 7.01568L25.7178 5.36139L27.4348 3.72687L29.1745 5.38313L30.9142 3.72687Z" fill="#E2FF31"/>
<path d="M40.3073 3.72687L42.0243 5.36139L40.2846 7.01568L42.0243 8.67194L40.3073 10.3045L38.5676 8.6502L36.8279 10.3045L35.1108 8.67194L36.8505 7.01568L35.1108 5.36139L36.8279 3.72687L38.5676 5.38313L40.3073 3.72687Z" fill="#E2FF31"/>
</g>
<defs>
<clipPath id="clip0_732_388">
<rect width="62.25" height="12.4536" fill="white" transform="translate(0.524902 0.793823)"/>
</clipPath>
</defs>
</svg>
