<svg width="19" height="16" viewBox="0 0 19 16" fill="none" xmlns="http://www.w3.org/2000/svg">
<path d="M19 0.598753C19.0081 0.748327 19.0081 0.898243 19 1.04782C18.9852 1.11441 18.9531 1.17574 18.9072 1.22546C18.8612 1.27518 18.803 1.31147 18.7386 1.33056L14.7034 15.185C14.6661 15.329 14.5929 15.4608 14.491 15.5676C14.4148 15.6635 14.3203 15.7427 14.2132 15.8004C14.1512 15.8579 14.0792 15.903 14.0009 15.9335C13.9042 15.9568 13.8035 15.9568 13.7068 15.9335C13.6371 15.9511 13.5641 15.9511 13.4944 15.9335L13.184 15.8004L8.98538 13.0395L6.68185 15.5842C6.59398 15.6813 6.48861 15.7604 6.37145 15.817C6.24204 15.8435 6.10877 15.8435 5.97936 15.817H5.68529C5.64613 15.8192 5.60696 15.813 5.57035 15.7986C5.53375 15.7843 5.50054 15.7622 5.47291 15.7339C5.29079 15.6915 5.12897 15.5856 5.01547 15.4345C4.91569 15.2925 4.83851 15.1353 4.78675 14.9688L3.98624 9.67983L0.375749 7.23493C0.271252 7.15287 0.184108 7.05017 0.11954 6.933C0.0549731 6.81582 0.0143125 6.68658 -3.54275e-06 6.55301C-0.025465 6.42356 -0.0240852 6.29011 0.00404746 6.16123C0.0321801 6.03235 0.0864454 5.91087 0.163367 5.80457L0.326738 5.65489L0.473771 5.5052L0.620805 5.35551C0.669025 5.34283 0.719618 5.34283 0.767838 5.35551L17.9708 0H18.3629C18.5216 0.00639949 18.6726 0.0714374 18.7876 0.182952C18.887 0.304372 18.9594 0.446204 19 0.598753ZM13.0696 3.55925L3.26741 6.65281L5.35855 8.18295L13.0696 3.55925ZM7.1883 10.079L13.0696 4.69023L5.97936 8.96466L6.38779 11.526L6.68185 10.711C6.71886 10.6124 6.77435 10.522 6.84522 10.4449L7.09028 10.2952C7.08235 10.2456 7.08235 10.1951 7.09028 10.1455L7.1883 10.079ZM13.2984 13.4054L16.3371 3.16008L8.57695 10.2952L13.2984 13.4054Z" fill="#273B4A"/>
</svg>
