<svg width="18" height="13" viewBox="0 0 18 13" fill="none" xmlns="http://www.w3.org/2000/svg">
<path d="M17.9052 2.79726C17.8173 2.14566 17.579 1.52487 17.2098 0.986318C16.9907 0.724868 16.7193 0.514531 16.414 0.36949C16.1087 0.22445 15.7765 0.148077 15.4399 0.145522C12.8481 0 9.02371 0 9.02371 0C9.02371 0 5.1993 0 2.70237 0.145522C2.36889 0.139199 2.0385 0.211793 1.73696 0.357639C1.43542 0.503485 1.17089 0.71864 0.964005 0.986318C0.54976 1.51232 0.267628 2.13405 0.142231 2.79726C0.0239731 3.76785 -0.023568 4.74608 1.44169e-06 5.72388V7.1306C-0.0203266 8.15675 0.0271918 9.18314 0.142231 10.2027C0.219855 10.8593 0.453137 11.4866 0.821775 12.0299C1.38206 12.5681 2.10899 12.8885 2.87621 12.9353C4.37753 12.9353 9.02371 12.9353 9.02371 12.9353C9.02371 12.9353 12.8481 12.9353 15.345 12.7898C15.6844 12.8006 16.0218 12.732 16.3313 12.5891C16.6408 12.4462 16.9142 12.2328 17.1308 11.9652C17.5509 11.4512 17.7902 10.8078 17.8104 10.1381C17.9286 9.16748 17.9762 8.18924 17.9526 7.21144V5.8694C18.0635 4.84741 18.0475 3.81517 17.9052 2.79726ZM7.23793 8.94154V3.63806L12.1686 6.2898L7.23793 8.94154Z" fill="#273B4A"/>
</svg>
