<?xml version="1.0" encoding="UTF-8" standalone="no"?>
<svg
   width="75"
   height="86"
   viewBox="0 0 75 86"
   fill="none"
   version="1.1"
   id="svg29"
   sodipodi:docname="dota.svg"
   inkscape:version="1.1.1 (3bf5ae0d25, 2021-09-20)"
   xmlns:inkscape="http://www.inkscape.org/namespaces/inkscape"
   xmlns:sodipodi="http://sodipodi.sourceforge.net/DTD/sodipodi-0.dtd"
   xmlns="http://www.w3.org/2000/svg"
   xmlns:svg="http://www.w3.org/2000/svg">
  <sodipodi:namedview
     id="namedview31"
     pagecolor="#ffffff"
     bordercolor="#666666"
     borderopacity="1.0"
     inkscape:pageshadow="2"
     inkscape:pageopacity="0.0"
     inkscape:pagecheckerboard="0"
     showgrid="false"
     inkscape:zoom="6.0465116"
     inkscape:cx="37.459616"
     inkscape:cy="56.313462"
     inkscape:window-width="1366"
     inkscape:window-height="705"
     inkscape:window-x="-8"
     inkscape:window-y="-8"
     inkscape:window-maximized="1"
     inkscape:current-layer="g22" />
  <g
     clip-path="url(#clip0_607_1693)"
     id="g22">
    <path
       d="M6.78329 73.9399C-0.120299 73.8693 0.0251268 73.7769 5.32737e-05 74.1095C-0.0350497 74.5731 0.83751 74.222 1.04646 74.9695V74.9762C1.06819 75.6414 1.01637 84.0885 1.01302 84.6143C1.00634 84.668 0.946162 84.9922 0.595132 85.1837C0.493166 85.2391 0.443019 85.3584 0.471436 85.4709C0.499853 85.5835 0.601819 85.6624 0.717157 85.6624H0.770647C1.83544 85.6624 3.27466 85.6926 4.09206 85.8421C4.66875 85.9463 5.23374 86 5.77031 86C9.94088 86 12.1407 82.7969 12.1557 79.6323C12.1691 76.9179 10.4942 73.9785 6.78329 73.9399ZM3.15263 74.9074C10.5059 74.4337 10.6262 80.0203 9.51964 82.7532C8.94128 84.1843 6.912 85.0392 5.28389 85.0392C4.2776 85.0392 3.54211 84.7184 3.21114 84.1372L3.15263 74.9074Z"
       fill="#383B43"
       id="path2"
       style="fill:#ffffff;fill-opacity:1" />
    <path
       d="M16.5437 79.8709C16.5437 83.8568 19.7899 85.9429 22.9976 85.9429C26.2054 85.9429 29.4131 83.714 29.4131 79.5836C29.4131 71.716 16.5437 71.5161 16.5437 79.8709ZM18.8471 79.8457C18.8471 76.923 19.6846 74.5714 22.6199 74.5714C24.9233 74.5714 27.0194 76.9499 27.0194 79.5685C27.0696 81.9218 26.5497 84.7806 23.7916 85.0477C20.9383 85.0443 19.275 83.2907 18.8471 79.8524V79.8473V79.8457Z"
       fill="#383B43"
       id="path4"
       style="fill:#ffffff;fill-opacity:1" />
    <path
       d="M43.3456 73.7837C43.0915 73.8643 42.784 73.9197 42.58 73.9197C42.3761 73.9197 34.7805 73.908 34.3258 73.908C34.0116 73.7434 33.5218 73.5418 33.4466 73.8895L33.1323 75.3273C33.1056 75.4466 33.1691 75.5692 33.2811 75.6162C33.3931 75.6632 33.5235 75.6246 33.592 75.5221C33.7291 75.3139 33.9347 75.156 34.2205 75.0418C34.9543 75.0115 36.9268 75.0082 37.3597 75.0082L37.3146 84.6865C37.3146 84.7 37.2945 85.0359 36.9836 85.2257C36.7663 85.3584 36.8599 85.6977 37.1157 85.6977C37.1173 85.6977 39.8169 85.6859 39.8186 85.6859C40.0844 85.6859 40.1696 85.3214 39.9306 85.2022C39.7083 85.0913 39.5913 84.925 39.5729 84.7084C39.5628 84.2582 39.496 76.5871 39.4809 75.0082L42.244 75.0737C42.2691 75.0737 42.8525 75.1073 43.0581 75.6918C43.0982 75.806 43.2152 75.8766 43.3356 75.8581C43.6013 75.8178 43.5529 75.6246 43.5896 74.4236C43.6482 74.2926 43.695 74.1095 43.6749 73.9852C43.6515 73.8307 43.496 73.735 43.3473 73.782L43.3456 73.7837Z"
       fill="#383B43"
       id="path6"
       style="fill:#ffffff;fill-opacity:1" />
    <path
       d="M58.7524 82.1132C58.0721 82.1031 56.6563 82.1015 56.3554 82.1015C56.3453 82.078 52.9587 73.661 52.9587 73.661C52.8668 73.4427 52.5726 73.4628 52.4907 73.6644L48.0644 84.6025C48.0644 84.6025 47.8655 85.0023 47.3857 85.2324C47.1434 85.35 47.2269 85.7162 47.4944 85.7162C47.5078 85.7162 49.5003 85.7195 49.5003 85.7195C49.7861 85.7195 49.8513 85.3181 49.5838 85.224C49.4434 85.1535 49.3782 85.0527 49.4184 84.9015C49.5604 84.411 49.9399 83.3461 50.0318 83.0891L54.4481 83.1009L55.3157 85.1669C55.319 85.1753 55.329 85.2139 55.2989 85.2576C55.1518 85.4189 55.2638 85.6809 55.4828 85.6842C55.5012 85.6842 58.0019 85.7195 58.0019 85.7195C58.1506 85.7195 58.2593 85.6003 58.2593 85.4642C58.2593 85.3517 58.1874 85.2576 58.0871 85.224C57.7545 85.0628 57.6157 84.9099 56.7632 83.0925C57.5171 83.1093 57.6592 82.7666 58.7791 82.6222C58.9112 82.6054 59.0065 82.4878 58.9998 82.3551C58.9931 82.2224 58.8845 82.1166 58.7507 82.1149L58.7524 82.1132ZM52.3052 77.1346L54.0837 82.0847L50.3778 82.1283L52.3052 77.1346Z"
       fill="#383B43"
       id="path8"
       style="fill:#ffffff;fill-opacity:1" />
    <path
       d="M74.5153 83.037C74.2712 83.5728 73.9704 84.0986 73.2181 84.1288C72.827 84.1439 70.7392 84.2279 69.4287 84.2178C77.2867 78.1945 75.1939 73.661 70.5119 73.661C69.4855 73.661 68.4542 73.9096 67.6819 74.343C67.6067 74.385 67.5582 74.4605 67.5532 74.5462C67.5331 74.8183 67.5866 75.3693 67.7087 76.1839C67.7254 76.2998 67.819 76.3871 67.9343 76.3989C68.048 76.409 68.1583 76.3401 68.1968 76.2309C68.6481 74.9661 69.5557 74.5143 70.2545 74.5143C71.2541 74.5143 72.3005 75.376 72.3623 77.0254C72.5027 80.6939 68.0563 84.154 67.0601 85.1081C66.8913 85.2542 66.7592 85.4087 66.8979 85.5868C66.8979 85.9059 67.3008 85.9479 67.3911 85.6859C68.2469 85.6809 72.8888 85.654 73.748 85.6641C74.3715 85.7094 74.6791 85.3449 74.6925 84.9384L74.9917 83.1848C75.0418 82.8926 74.634 82.7666 74.5119 83.0353L74.5153 83.037Z"
       fill="#383B43"
       id="path10"
       style="fill:#ffffff;fill-opacity:1" />
    <path
       d="M70.5452 15.438C70.2844 3.06713 70.2693 5.74119 70.5218 1.88463C70.5368 1.65619 70.3646 1.45798 70.1373 1.44287C51.8052 0.181422 51.1098 0.0369691 49.689 0.0369691C24.679 0.0352894 37.8091 -0.376234 4.42621 1.60244C4.19888 1.61588 4.0267 1.81072 4.0384 2.03916C6.18971 43.5174 6.11115 36.7516 5.01293 64.3959C5.00457 64.5941 5.1383 64.7705 5.33053 64.8158C7.82952 65.4087 7.38656 65.1753 13.2153 65.1803C13.2254 65.1837 24.1374 63.986 24.1474 63.9844C24.1992 63.9928 39.2383 66.4737 39.2901 66.4737C39.3018 66.4737 39.3135 66.4737 39.3252 66.4737C56.9503 64.9888 51.8988 65.3483 63.2688 64.715L69.9451 66.0722C70.2042 66.1243 70.4432 65.9227 70.4398 65.6607C70.2961 52.1526 70.5468 15.4397 70.5468 15.4397L70.5452 15.438ZM43.4423 14.4537C43.4925 14.442 43.5627 14.4235 43.6513 14.4L48.4035 13.3233C50.8373 12.7102 51.1967 12.5607 53.2812 11.5764C54.2423 11.9124 56.8801 13.3787 57.5487 14.2203C57.99 14.7779 57.9616 14.9022 57.8228 15.4985C57.7961 15.6127 57.766 15.7454 57.7326 15.8999C57.7309 15.91 57.7292 15.9201 57.7276 15.9319L56.6828 24.1489C55.6481 24.1875 55.5629 24.1069 55.277 23.8432C55.1584 23.734 55.0129 23.5979 54.7522 23.4233C53.1792 22.3634 48.0341 18.537 46.4094 17.2202L43.215 14.6419L43.2401 14.6167C43.2752 14.5814 43.3053 14.536 43.3253 14.4907C43.342 14.4789 43.4039 14.4621 43.4423 14.4537ZM50.8474 55.8295C50.7538 55.7354 10.9136 13.2947 10.8835 13.236L14.3637 10.5535L63.0064 42.916C62.6052 44.0733 62.4447 45.402 62.2024 46.5055C61.3482 50.4007 60.2483 52.1056 58.5299 55.8076C56.071 55.9067 51.0179 55.8866 50.8474 55.8295ZM14.6044 44.3471C15.0524 43.2654 15.6675 41.5253 16.1857 40.6451C18.7298 42.2425 28.669 52.2769 29.5332 53.6324C29.0551 53.8105 26.9974 54.1179 23.5824 55.4902C21.4177 56.3586 19.3734 57.1816 17.3993 56.5081C17.202 56.4409 16.6771 55.9941 15.8999 55.3189C14.479 54.086 13.1903 53.1974 12.4431 52.754C11.166 51.9964 11.3649 52.156 14.6077 44.3505L14.6044 44.3471Z"
       fill="#383B43"
       id="path12"
       style="fill:#ffffff;fill-opacity:1" />
    <path
       d="M9.12165 44.4344C8.80906 28.2674 9.15842 37.074 7.30967 1.43274L4.42621 1.60407C4.19888 1.6175 4.0267 1.81235 4.0384 2.04079L5.57291 31.6352C5.87713 47.4427 5.96071 40.5157 5.01126 64.3975C5.0029 64.5957 5.13663 64.7721 5.32886 64.8174C6.73966 65.1517 7.32471 65.2273 8.31595 65.2273C8.28419 65.1214 8.25076 66.2989 9.11998 44.4361L9.12165 44.4344Z"
       fill="#383B43"
       id="path14"
       style="fill:#ffffff;fill-opacity:1" />
    <path
       d="M31.6027 54.5428C31.6027 54.5428 33.2893 53.9599 31.9019 52.4314C26.2453 46.0923 22.7985 43.7945 19.5239 40.1831C18.1549 38.6933 16.1858 40.6417 16.1858 40.6417C28.9867 52.0753 26.4225 50.4208 28.6791 52.6095C28.9783 52.9 29.2157 53.1302 29.5333 53.6274C29.4748 53.6492 29.2123 53.7164 28.8496 53.8071C23.524 55.1575 22.725 56.0747 20.3463 56.587C22.5662 58.4061 26.4793 56.1872 29.2692 55.2214C29.9361 54.9913 30.8204 54.746 31.601 54.5411L31.6027 54.5428Z"
       fill="#383B43"
       id="path16"
       style="fill:#ffffff;fill-opacity:1" />
    <path
       d="M65.4269 39.5498L18.9255 9.74882C17.3676 8.75109 15.6877 9.23148 14.3655 10.55L63.0065 42.9159C62.6053 44.0732 62.4448 45.4019 62.2025 46.5054C61.3483 50.4006 60.2484 52.1055 58.53 55.8075C58.53 55.8075 62.9346 56.6591 64.2786 53.6626C67.4295 46.9237 66.7023 45.6521 67.4529 43.524C67.3643 42.323 67.5298 40.8986 65.4269 39.5515V39.5498Z"
       fill="#383B43"
       id="path18"
       style="fill:#ffffff;fill-opacity:1" />
    <path
       d="M57.7326 15.8999C57.731 15.9099 57.7293 15.92 57.7276 15.9318L56.6829 24.1488C56.6829 24.1488 60.8184 26.7154 61.3365 22.496V22.4926L62.1924 15.5454C62.1924 15.5354 62.1957 15.5236 62.1974 15.5135C62.2308 15.354 62.2609 15.2196 62.2893 15.102C62.4314 14.4923 62.4615 14.3646 62.0102 13.7952C61.5355 13.1972 59.4076 11.6183 57.8229 10.5954C56.3269 9.58759 54.55 10.8003 54.55 10.8003C54.107 11.1413 53.7108 11.4403 53.2812 11.5763C54.3678 12.1659 57.1208 13.681 57.5488 14.2202C57.9901 14.7778 57.9616 14.9021 57.8229 15.4984C57.7962 15.6126 57.7661 15.7453 57.7343 15.8999H57.7326Z"
       fill="#383B43"
       id="path20"
       style="fill:#ffffff;fill-opacity:1" />
  </g>
  <defs
     id="defs27">
    <clipPath
       id="clip0_607_1693">
      <rect
         width="75"
         height="86"
         fill="white"
         id="rect24" />
    </clipPath>
  </defs>
</svg>
