<?xml version="1.0" encoding="UTF-8" standalone="no"?>
<svg
   width="84"
   height="29"
   viewBox="0 0 84 29"
   fill="none"
   version="1.1"
   id="svg1079"
   sodipodi:docname="fifa.svg"
   inkscape:version="1.1.1 (3bf5ae0d25, 2021-09-20)"
   xmlns:inkscape="http://www.inkscape.org/namespaces/inkscape"
   xmlns:sodipodi="http://sodipodi.sourceforge.net/DTD/sodipodi-0.dtd"
   xmlns="http://www.w3.org/2000/svg"
   xmlns:svg="http://www.w3.org/2000/svg">
  <defs
     id="defs1083" />
  <sodipodi:namedview
     id="namedview1081"
     pagecolor="#ffffff"
     bordercolor="#666666"
     borderopacity="1.0"
     inkscape:pageshadow="2"
     inkscape:pageopacity="0.0"
     inkscape:pagecheckerboard="0"
     showgrid="false"
     inkscape:zoom="12.928571"
     inkscape:cx="42.038675"
     inkscape:cy="14.502763"
     inkscape:window-width="1366"
     inkscape:window-height="705"
     inkscape:window-x="-8"
     inkscape:window-y="-8"
     inkscape:window-maximized="1"
     inkscape:current-layer="svg1079" />
  <path
     d="M12.1912 6.37598H25.9907L27.1023 0.0429688H5.18775L0 29H8.1596L10.0939 18.0319H21.255L22.3666 11.6989H11.2426L12.1912 6.37598Z"
     fill="#383B43"
     id="path1071"
     style="fill:#ffffff;fill-opacity:1" />
  <path
     d="M29.9556 0.0429688L24.7678 29H32.883L38.0707 0.0429688H29.9556Z"
     fill="#383B43"
     id="path1073"
     style="fill:#ffffff;fill-opacity:1" />
  <path
     d="M58.095 11.6989H46.971L47.9122 6.37598H61.719L62.8307 0.0429688H40.9161L35.7209 29H43.8805L45.8223 18.0319H56.9833L58.095 11.6989Z"
     fill="#383B43"
     id="path1075"
     style="fill:#ffffff;fill-opacity:1" />
  <path
     d="M69.6346 0L54.2715 28.9929H62.0976L64.5729 23.9207H74.7409L75.4005 28.9929H83.4785L78.7355 0H69.6346ZM67.4928 17.8671L72.436 7.42911H72.5991L73.9627 17.8671H67.4928Z"
     fill="#383B43"
     id="path1077"
     style="fill:#ffffff;fill-opacity:1" />
</svg>
