<?xml version="1.0" encoding="UTF-8" standalone="no"?>
<svg
   width="39"
   height="95"
   viewBox="0 0 39 95"
   fill="none"
   version="1.1"
   id="svg1205"
   sodipodi:docname="nba.svg"
   inkscape:version="1.1.1 (3bf5ae0d25, 2021-09-20)"
   xmlns:inkscape="http://www.inkscape.org/namespaces/inkscape"
   xmlns:sodipodi="http://sodipodi.sourceforge.net/DTD/sodipodi-0.dtd"
   xmlns="http://www.w3.org/2000/svg"
   xmlns:svg="http://www.w3.org/2000/svg">
  <sodipodi:namedview
     id="namedview1207"
     pagecolor="#ffffff"
     bordercolor="#666666"
     borderopacity="1.0"
     inkscape:pageshadow="2"
     inkscape:pageopacity="0.0"
     inkscape:pagecheckerboard="0"
     showgrid="false"
     inkscape:zoom="5.4736842"
     inkscape:cx="19.456731"
     inkscape:cy="47.591346"
     inkscape:window-width="1366"
     inkscape:window-height="705"
     inkscape:window-x="-8"
     inkscape:window-y="-8"
     inkscape:window-maximized="1"
     inkscape:current-layer="g1198" />
  <g
     clip-path="url(#clip0_607_1748)"
     id="g1198">
    <path
       d="M15.1682 79.9135H14.4911V82.5777H15.1682C15.7401 82.5777 16.0558 81.9573 16.0558 81.2639C16.0558 80.5339 15.7401 79.9135 15.1682 79.9135ZM15.2735 84.877H14.4911V88.0523H15.2735C15.7852 88.0523 16.2663 87.5049 16.2663 86.4463C16.2663 85.4428 15.7848 84.877 15.2735 84.877ZM15.2735 84.877H14.4911V88.0523H15.2735C15.7852 88.0523 16.2663 87.5049 16.2663 86.4463C16.2663 85.4428 15.7848 84.877 15.2735 84.877ZM16.0558 81.2639C16.0558 80.5339 15.7401 79.9135 15.1682 79.9135H14.4911V82.5777H15.1682C15.7401 82.5777 16.0558 81.9573 16.0558 81.2639ZM30.3406 94.272C29.8168 93.5045 29.8226 93.7738 30.2009 87.6267C30.2917 86.1557 30.2614 85.6709 30.0637 85.4311C29.9137 85.2493 29.8077 84.6815 29.8031 84.0373C29.7965 83.0617 29.6664 82.6973 28.5276 80.4726C27.3126 78.0978 27.2691 77.9681 27.485 77.3674C27.686 76.807 27.6574 76.6186 27.2173 75.5975C26.7781 74.5785 26.5808 74.3563 25.4044 73.5579C23.1232 72.0086 21.2891 70.4293 18.2355 67.384C14.8263 63.9828 11.9961 60.2434 9.37135 55.6722C8.4597 54.0854 8.38843 54.0191 7.58327 54.0149C6.9791 54.012 6.25309 53.4812 6.25599 53.0439C6.25682 52.9171 5.51673 51.2778 4.61212 49.4012C2.26379 44.5315 2.06323 43.4942 2.78095 39.9486C3.20735 37.8461 3.28733 37.6568 4.17619 36.667C5.11975 35.6163 4.97181 35.3203 3.42615 35.1669C1.36167 34.9609 1.38281 34.9743 0.954747 33.641C0.744238 32.9855 0.571854 32.2426 0.571854 31.9903C0.571854 31.1536 1.51624 28.5061 2.8141 25.7027C3.51856 24.1813 4.42151 22.1063 4.82056 21.0919C6.24149 17.4821 8.20113 14.5953 9.78367 13.7832C10.4164 13.4584 11.6459 13.2141 15.3054 12.6862C17.3421 12.3919 17.4855 12.243 17.778 10.1192C17.9483 8.88387 17.9313 8.69 17.6098 8.16634C17.3777 7.78902 17.2526 7.25493 17.2526 6.6433C17.2526 5.7836 17.3006 5.67687 17.8025 5.41546C18.2881 5.16322 18.3528 5.03355 18.3528 4.3131C18.3528 2.59036 18.698 1.63102 19.6589 0.690847C19.8885 0.467374 20.1114 0.236814 20.3273 0H7.74116C3.46634 0 0 3.48717 0 7.7886V87.211C0 91.5124 3.46593 95 7.74116 95H30.769C30.6915 94.8274 30.5291 94.5481 30.3406 94.272ZM10.3377 90.4976H7.26834L5.40277 82.4501H5.37252V90.4976H2.75484V77.4682H5.88429L7.68977 85.4974H7.72002V77.4682H10.3377V90.4976ZM15.9207 90.4976H11.6927V77.4687H15.9207C17.9214 77.4687 18.8542 78.7641 18.8542 80.7165C18.8542 82.1032 18.3577 83.3444 17.1693 83.6363V83.6725C18.5836 83.8368 19.1554 85.2969 19.1554 86.6469C19.1554 88.91 18.2529 90.4976 15.9207 90.4976ZM25.0998 90.4976L24.8139 88.2166H22.5874L22.3019 90.4976H19.322L21.9405 77.4682H25.4612L28.0788 90.4976H25.0998ZM23.6859 80.1324L22.9185 85.6617H24.4828L23.7158 80.1324H23.6859ZM15.2735 84.877H14.4911V88.0523H15.2735C15.7852 88.0523 16.2663 87.5049 16.2663 86.4463C16.2663 85.4428 15.7848 84.877 15.2735 84.877ZM16.0558 81.2639C16.0558 80.5339 15.7401 79.9135 15.1682 79.9135H14.4911V82.5777H15.1682C15.7401 82.5777 16.0558 81.9573 16.0558 81.2639Z"
       fill="#383B43"
       id="path1188"
       style="fill:#ffffff;fill-opacity:1" />
    <path
       d="M38.9992 51.9966V87.2106C38.9992 90.8466 36.5228 93.9002 33.1746 94.7582C33.2384 94.6606 33.3457 94.5164 33.545 94.2629C34.6593 92.8478 34.702 91.527 33.7348 88.4134C33.4257 87.4178 33.2135 86.4439 33.2645 86.2487C33.315 86.054 33.2326 85.5967 33.0813 85.2327C32.6338 84.1545 32.2393 81.4995 32.3644 80.4034C32.4266 79.8556 32.6106 78.8754 32.7734 78.2246C33.1294 76.7995 32.9798 76.1183 31.9898 74.6378C31.6297 74.0995 31.2667 73.5296 31.1826 73.372C31.0985 73.2144 30.7375 71.3832 30.3799 69.3032C29.6005 64.7695 29.2598 63.6021 28.1497 61.6659C26.4801 58.7525 26.1698 57.8335 25.8764 54.9342C25.5871 52.0779 25.3559 50.6812 24.7352 48.0458C24.3133 46.2547 24.2221 45.5759 24.3626 45.267C24.5085 44.9434 24.3042 44.0028 23.388 40.7825C22.144 36.411 21.9459 35.9045 21.212 35.2145C20.9182 34.9376 20.7363 34.5691 20.7363 34.2476C20.7363 33.962 21.2419 32.4406 21.8593 30.8668L22.9823 28.005L24.2213 27.1765C25.4881 26.3293 26.0003 26.1701 26.1466 26.5787C26.1921 26.7054 26.522 28.3756 26.88 30.291C27.6719 34.5278 27.8783 35.1623 29.6233 38.7096C30.3808 40.2493 30.9621 41.5705 30.9162 41.6455C30.8702 41.721 30.3045 42.0437 29.6601 42.3631C28.2438 43.0648 26.9476 44.3998 26.2688 45.8573C25.8441 46.7692 25.7778 47.149 25.7778 48.6641C25.7778 50.1792 25.8329 50.5327 26.3616 51.6559C28.5467 56.2968 34.4989 57.1494 37.9769 53.3212C38.4758 52.7721 38.884 52.2463 38.884 52.1529C38.884 52.0816 38.932 52.0216 38.9992 51.9966Z"
       fill="#383B43"
       id="path1190"
       style="fill:#ffffff;fill-opacity:1" />
    <path
       d="M39 7.7886V45.3958L38.7468 45.0393C38.5201 44.7191 38.3345 44.3768 38.3345 44.2776C38.3345 43.9903 36.4573 42.4569 35.7325 42.1521C34.9738 41.8335 34.9626 41.8064 34.5851 39.4066C34.2913 37.5392 33.9515 36.5073 33.0125 34.6362C32.3271 33.2699 31.3703 28.6433 31.3649 26.6695C31.3529 22.2151 30.1889 19.2641 27.7622 17.5384C27.0872 17.0585 26.1581 16.3222 25.6982 15.9024C25.2378 15.4826 24.4078 14.8934 23.8529 14.5933C23.2985 14.2931 22.8174 13.9062 22.7838 13.7336C22.7502 13.5614 23.054 13.059 23.458 12.6174C23.8624 12.1759 24.3564 11.4951 24.5553 11.1048C24.7542 10.7142 25.1396 10.1876 25.4114 9.9341C26.1652 9.23075 26.8017 7.8478 26.6724 7.19573C26.6036 6.85052 26.706 6.26473 26.9496 5.61016C27.3735 4.46945 27.4411 3.41338 27.1406 2.6183C26.9413 2.09005 25.6907 0.78132 24.8665 0.238065C24.7517 0.162184 24.6572 0.0783821 24.5922 0H31.258C35.5332 0 38.9992 3.48717 39 7.7886Z"
       fill="#383B43"
       id="path1192"
       style="fill:#ffffff;fill-opacity:1" />
    <path
       d="M15.1682 79.9135H14.4911V82.5777H15.1682C15.7401 82.5777 16.0558 81.9573 16.0558 81.2639C16.0558 80.5339 15.7401 79.9135 15.1682 79.9135ZM15.2735 84.877H14.4911V88.0523H15.2735C15.7852 88.0523 16.2663 87.5049 16.2663 86.4463C16.2663 85.4428 15.7848 84.877 15.2735 84.877ZM15.2735 84.877H14.4911V88.0523H15.2735C15.7852 88.0523 16.2663 87.5049 16.2663 86.4463C16.2663 85.4428 15.7848 84.877 15.2735 84.877ZM16.0558 81.2639C16.0558 80.5339 15.7401 79.9135 15.1682 79.9135H14.4911V82.5777H15.1682C15.7401 82.5777 16.0558 81.9573 16.0558 81.2639ZM30.3406 94.272C29.8168 93.5045 29.8226 93.7738 30.2009 87.6267C30.2917 86.1557 30.2614 85.6709 30.0637 85.4311C29.9137 85.2493 29.8077 84.6815 29.8031 84.0373C29.7965 83.0617 29.6664 82.6973 28.5276 80.4726C27.3126 78.0978 27.2691 77.9681 27.485 77.3674C27.686 76.807 27.6574 76.6186 27.2173 75.5975C26.7781 74.5785 26.5808 74.3563 25.4044 73.5579C23.1232 72.0086 21.2891 70.4293 18.2355 67.384C14.8263 63.9828 11.9961 60.2434 9.37135 55.6722C8.4597 54.0854 8.38843 54.0191 7.58327 54.0149C6.9791 54.012 6.25309 53.4812 6.25599 53.0439C6.25682 52.9171 5.51673 51.2778 4.61212 49.4012C2.26379 44.5315 2.06323 43.4942 2.78095 39.9486C3.20735 37.8461 3.28733 37.6568 4.17619 36.667C5.11975 35.6163 4.97181 35.3203 3.42615 35.1669C1.36167 34.9609 1.38281 34.9743 0.954747 33.641C0.744238 32.9855 0.571854 32.2426 0.571854 31.9903C0.571854 31.1536 1.51624 28.5061 2.8141 25.7027C3.51856 24.1813 4.42151 22.1063 4.82056 21.0919C6.24149 17.4821 8.20113 14.5953 9.78367 13.7832C10.4164 13.4584 11.6459 13.2141 15.3054 12.6862C17.3421 12.3919 17.4855 12.243 17.778 10.1192C17.9483 8.88387 17.9313 8.69 17.6098 8.16634C17.3777 7.78902 17.2526 7.25493 17.2526 6.6433C17.2526 5.7836 17.3006 5.67687 17.8025 5.41546C18.2881 5.16322 18.3528 5.03355 18.3528 4.3131C18.3528 2.59036 18.698 1.63102 19.6589 0.690847C19.8885 0.467374 20.1114 0.236814 20.3273 0H7.74116C3.46634 0 0 3.48717 0 7.7886V87.211C0 91.5124 3.46593 95 7.74116 95H30.769C30.6915 94.8274 30.5291 94.5481 30.3406 94.272ZM10.3377 90.4976H7.26834L5.40277 82.4501H5.37252V90.4976H2.75484V77.4682H5.88429L7.68977 85.4974H7.72002V77.4682H10.3377V90.4976ZM15.9207 90.4976H11.6927V77.4687H15.9207C17.9214 77.4687 18.8542 78.7641 18.8542 80.7165C18.8542 82.1032 18.3577 83.3444 17.1693 83.6363V83.6725C18.5836 83.8368 19.1554 85.2969 19.1554 86.6469C19.1554 88.91 18.2529 90.4976 15.9207 90.4976ZM25.0998 90.4976L24.8139 88.2166H22.5874L22.3019 90.4976H19.322L21.9405 77.4682H25.4612L28.0788 90.4976H25.0998ZM23.6859 80.1324L22.9185 85.6617H24.4828L23.7158 80.1324H23.6859ZM15.2735 84.877H14.4911V88.0523H15.2735C15.7852 88.0523 16.2663 87.5049 16.2663 86.4463C16.2663 85.4428 15.7848 84.877 15.2735 84.877ZM16.0558 81.2639C16.0558 80.5339 15.7401 79.9135 15.1682 79.9135H14.4911V82.5777H15.1682C15.7401 82.5777 16.0558 81.9573 16.0558 81.2639Z"
       fill="#383B43"
       id="path1194"
       style="fill:#ffffff;fill-opacity:1" />
    <path
       d="M31.258 0H24.5922C24.6573 0.0783821 24.7517 0.162184 24.8665 0.238065C25.6907 0.78132 26.9414 2.09005 27.1407 2.6183C27.4411 3.41338 27.3736 4.46945 26.9496 5.61016C26.706 6.26473 26.6036 6.85052 26.6724 7.19573C26.8017 7.8478 26.1652 9.23075 25.4114 9.9341C25.1396 10.1876 24.7542 10.7142 24.5553 11.1048C24.3564 11.4951 23.8625 12.1759 23.458 12.6174C23.054 13.059 22.7502 13.5614 22.7838 13.7336C22.8174 13.9062 23.2985 14.2931 23.8529 14.5933C24.4078 14.8934 25.2378 15.4826 25.6982 15.9024C26.1582 16.3223 27.0872 17.0585 27.7623 17.5384C30.1889 19.2641 31.3529 22.2151 31.3649 26.6695C31.3703 28.6433 32.3271 33.2699 33.0125 34.6362C33.9515 36.5073 34.2913 37.5392 34.5851 39.4066C34.9626 41.8065 34.9738 41.8336 35.7326 42.1521C36.4573 42.4569 38.3345 43.9903 38.3345 44.2776C38.3345 44.3768 38.5201 44.7191 38.7468 45.0393L39 45.3958V7.7886C38.9992 3.48717 35.5332 0 31.258 0ZM38.884 52.1529C38.884 52.2463 38.4758 52.772 37.9769 53.3211C34.4989 57.1493 28.5467 56.2967 26.3616 51.6559C25.8329 50.5327 25.7778 50.2509 25.7778 48.6641C25.7778 47.0772 25.8441 46.7691 26.2688 45.8573C26.9476 44.3997 28.2438 43.0647 29.6601 42.3631C30.3045 42.0437 30.8702 41.721 30.9162 41.6455C30.9621 41.5705 30.3808 40.2492 29.6233 38.7095C27.8783 35.1623 27.6719 34.5278 26.88 30.291C26.522 28.3756 26.1921 26.7054 26.1466 26.5786C26.0003 26.17 25.4881 26.3293 24.2213 27.1765L22.9823 28.0049L21.8593 30.8667C21.2419 32.4406 20.7363 33.962 20.7363 34.2476C20.7363 34.569 20.9182 34.9376 21.212 35.2144C21.9459 35.9044 22.144 36.411 23.388 40.7825C24.3042 44.0028 24.5085 44.9434 24.3626 45.2669C24.2221 45.5759 24.3133 46.2546 24.7352 48.0458C25.3559 50.6811 25.5871 52.0779 25.8764 54.9342C26.1698 57.8335 26.4801 58.7524 28.1497 61.6659C29.2598 63.6021 29.6005 64.7695 30.3799 69.3032C30.7376 71.3832 31.0985 73.2143 31.1826 73.3719C31.2667 73.5295 31.6297 74.0995 31.9898 74.6377C32.9798 76.1182 33.1294 76.7995 32.7734 78.2245C32.6106 78.8754 32.4266 79.8556 32.3644 80.4034C32.2393 81.4995 32.6338 84.1545 33.0813 85.2327C33.2326 85.5966 33.315 86.054 33.2645 86.2487C33.2135 86.4438 33.4257 87.4178 33.7348 88.4134C34.702 91.527 34.6593 92.8478 33.545 94.2629C33.3457 94.5164 33.2384 94.6606 33.1746 94.7582C36.5228 93.9001 38.9992 90.8466 38.9992 87.2106V51.9966C38.932 52.0216 38.884 52.0816 38.884 52.1529Z"
       fill="#383B43"
       id="path1196"
       style="fill:#ffffff;fill-opacity:1" />
  </g>
  <defs
     id="defs1203">
    <clipPath
       id="clip0_607_1748">
      <rect
         width="39"
         height="95"
         fill="white"
         id="rect1200" />
    </clipPath>
  </defs>
</svg>
