<?xml version="1.0" encoding="UTF-8" standalone="no"?>
<svg
   width="74"
   height="85"
   viewBox="0 0 74 85"
   fill="none"
   version="1.1"
   id="svg1325"
   sodipodi:docname="nhl.svg"
   inkscape:version="1.1.1 (3bf5ae0d25, 2021-09-20)"
   xmlns:inkscape="http://www.inkscape.org/namespaces/inkscape"
   xmlns:sodipodi="http://sodipodi.sourceforge.net/DTD/sodipodi-0.dtd"
   xmlns="http://www.w3.org/2000/svg"
   xmlns:svg="http://www.w3.org/2000/svg">
  <sodipodi:namedview
     id="namedview1327"
     pagecolor="#ffffff"
     bordercolor="#666666"
     borderopacity="1.0"
     inkscape:pageshadow="2"
     inkscape:pageopacity="0.0"
     inkscape:pagecheckerboard="0"
     showgrid="false"
     inkscape:zoom="6.1176471"
     inkscape:cx="37.024038"
     inkscape:cy="42.58173"
     inkscape:window-width="1366"
     inkscape:window-height="705"
     inkscape:window-x="-8"
     inkscape:window-y="-8"
     inkscape:window-maximized="1"
     inkscape:current-layer="g1318" />
  <g
     clip-path="url(#clip0_607_1754)"
     id="g1318">
    <path
       d="M71.1609 21.4863L74 14.9574L67.3072 12.9542C65.2676 12.3417 63.7609 10.7433 62.8488 8.18983L59.897 -0.0101929L53.2964 5.52223C51.5438 6.98578 49.7706 7.73312 48.0283 7.73312C45.6914 7.73312 43.0368 6.58097 41.2535 4.79564L37 0.550315L32.7465 4.80602C30.9632 6.59135 28.3086 7.7435 25.9717 7.7435C24.2294 7.7435 22.4562 6.99616 20.7036 5.53261L14.1133 0.000186907L11.1512 8.20021C10.2288 10.7433 8.73241 12.3521 6.6928 12.9645L0 14.9574L2.83906 21.4863C4.15097 24.4965 4.81717 27.6415 4.81717 30.8385C4.81717 39.6613 0.368975 41.6646 0.368975 51.4631C0.368975 65.5796 11.1512 74.828 21.1751 77.4333C26.2382 78.6789 27.7654 78.7619 32.3366 79.9037C32.7158 80.3085 37 84.9898 37 84.9898C37 84.9898 41.2945 80.3085 41.6634 79.9037C46.2346 78.7619 47.7618 78.6789 52.8249 77.4333C62.8488 74.8176 73.631 65.5796 73.631 51.4631C73.631 41.6646 69.1828 39.6509 69.1828 30.8281C69.1828 27.6415 69.849 24.4965 71.1609 21.4759M70.4333 41.2702C71.4992 43.9793 72.5344 46.813 72.5344 51.4527C72.5344 64.3548 63.0537 73.6136 52.5482 76.3538C47.3621 77.6824 44.9432 77.807 41.069 78.9073C40.5668 79.447 36.9898 83.3602 36.9898 83.3602C36.9898 83.3602 33.4127 79.447 32.9105 78.9073C29.0363 77.807 26.6277 77.6824 21.4313 76.3538C13.3241 74.2467 5.82161 68.2368 2.82881 59.6632C1.94737 57.1305 1.44515 54.3902 1.44515 51.4527C1.44515 41.8203 5.89335 39.9935 5.89335 30.8177C5.89335 27.0603 5.00166 23.7284 3.82299 21.0192L1.50665 15.6633L7.00028 14.0233C9.39862 13.3071 11.141 11.4802 12.1762 8.58426L14.6053 1.85817L20.0067 6.39413C21.79 7.88882 23.8194 8.86452 25.9717 8.86452C28.8621 8.86452 31.7319 7.40097 33.5152 5.60527L37 2.11766L40.4848 5.60527C42.2784 7.40097 45.138 8.86452 48.0283 8.86452C50.1806 8.86452 52.2202 7.88882 53.9934 6.39413L59.3947 1.85817L61.8136 8.58426C62.859 11.4802 64.6014 13.3071 66.9997 14.0233L72.4934 15.6633L70.1565 21.04C68.9778 23.7491 68.0862 27.0706 68.0862 30.8385C68.0862 35.5924 69.2853 38.3742 70.4333 41.2909"
       fill="#383B43"
       id="path1312"
       style="fill:#ffffff;fill-opacity:1" />
    <path
       d="M69.0599 17.3031C69.0599 17.3031 60.5735 16.5557 58.2776 6.11368C58.2776 6.11368 53.1837 11.4177 48.0283 11.4177C41.3765 11.4177 37.0001 5.69849 37.0001 5.69849C37.0001 5.69849 32.6236 11.4177 25.9718 11.4177C20.8164 11.4177 15.7225 6.11368 15.7225 6.11368C13.4267 16.5557 4.94023 17.3031 4.94023 17.3031C4.94023 17.3031 8.39425 23.4894 8.39425 30.8176C8.39425 31.7829 8.343 32.6652 8.26101 33.4955C7.53331 40.8133 3.9563 43.7508 3.9563 51.4629C3.9563 60.9397 10.3621 70.8835 22.0668 73.8833C27.622 75.3053 31.4654 75.6686 34.284 76.6962C34.6427 77.0387 37.0001 79.6233 37.0001 79.6233C37.0001 79.6233 39.3472 77.0387 39.7161 76.6962C42.5449 75.6686 46.3782 75.3053 51.9333 73.8833C63.6278 70.8835 70.0438 60.9397 70.0438 51.4629C70.0438 42.8685 65.6059 40.2009 65.6059 30.8072C65.6059 23.479 69.0599 17.3031 69.0599 17.3031ZM67.5533 51.4733C67.5533 62.424 59.1283 69.3888 51.3184 71.4025C45.138 72.9906 41.0895 73.1774 38.3735 74.506C38.3735 74.506 37.3895 75.4195 37.0103 75.845C36.6311 75.4298 35.6472 74.506 35.6472 74.506C32.9311 73.1774 28.8929 73.001 22.7023 71.4025C14.8923 69.3992 6.46738 62.424 6.46738 51.4733C6.46738 43.647 10.9053 40.7718 10.9053 30.8176C10.9053 24.1122 8.4045 18.9431 8.4045 18.9431C8.4045 18.9431 14.1749 17.7598 16.8704 10.359C16.8704 10.359 20.7037 13.9816 25.9923 13.9816C32.6134 13.9816 37.0206 9.26913 37.0206 9.26913C37.0206 9.26913 41.4175 13.9816 48.0488 13.9816C53.3375 13.9816 57.1707 10.359 57.1707 10.359C59.856 17.7598 65.6366 18.9431 65.6366 18.9431C65.6366 18.9431 63.1358 24.1122 63.1358 30.8176C63.1358 40.7614 67.5738 43.6366 67.5738 51.4733"
       fill="#383B43"
       id="path1314"
       style="fill:#ffffff;fill-opacity:1" />
    <path
       d="M60.2762 30.8175C60.2762 26.5618 61.1884 22.8874 61.9673 20.5208C60.4094 19.6489 58.5031 18.2165 56.8427 15.881L9.3064 52.0234C9.53188 59.1336 14.0723 64.3131 19.2585 67.0118L60.6247 35.5507C60.4094 34.1391 60.2865 32.5717 60.2865 30.8072M30.4507 55.3034L26.7712 58.0956L22.8047 51.9404V61.1161L19.32 63.763V50.7882C19.32 48.951 17.5981 48.9095 17.5981 48.9095L22.528 45.1624L26.966 52.0546V41.789L30.4507 39.1421C30.4507 39.1421 30.4507 55.3138 30.4507 55.3034ZM44.482 44.633L41.0793 47.2176V41.3115L37.1538 44.3009V50.2174L33.5768 52.9369V39.9621C33.5768 38.1353 31.8446 38.0834 31.8446 38.0834L37.1435 34.056V40.0348L41.069 37.0454V31.0667L44.4718 28.4717V44.633H44.482ZM57.3244 34.8657L47.4543 42.3702V29.3955C47.4543 27.5583 45.7222 27.5168 45.7222 27.5168L51.0211 23.479V35.5196L57.3142 30.7345C57.3142 30.7345 57.0989 32.2707 57.3142 34.8553"
       fill="#383B43"
       id="path1316"
       style="fill:#ffffff;fill-opacity:1" />
  </g>
  <defs
     id="defs1323">
    <clipPath
       id="clip0_607_1754">
      <rect
         width="74"
         height="85"
         fill="white"
         id="rect1320" />
    </clipPath>
  </defs>
</svg>
