<svg width="66" height="78" viewBox="0 0 66 78" fill="none" xmlns="http://www.w3.org/2000/svg">
<g clip-path="url(#clip0_607_1722)">
<path d="M0 0V61.3738H66V0H0ZM17.8337 48.8325C17.644 49.1913 16.8095 50.0384 16.8474 50.9247C16.8854 51.8111 16.9415 51.9422 17.3603 52.3191C17.3603 52.3191 16.9992 53.543 16.8672 54.0525C16.7352 54.562 16.2223 56.5578 16.1268 56.9165C16.0312 57.2753 15.8612 57.9536 15.9174 58.3108L15.8597 58.4616H2.56717V2.31079H32.1534C32.1534 2.31079 30.5026 3.49859 30.143 5.00595C29.7834 6.51331 29.8578 7.58656 30.1248 8.30406C30.1248 8.30406 30.1248 8.66281 29.9154 8.9251C29.7061 9.18738 29.7258 8.37943 28.7593 8.4352C27.7928 8.49098 26.4455 8.19101 24.6446 11.4122C24.6446 11.4122 24.0559 12.9015 23.9618 14.1828C23.8677 15.464 23.7524 17.2156 23.9239 17.6678C24.0953 18.12 22.085 18.007 22.085 18.007C22.085 18.007 21.5721 18.1396 21.5539 18.3461C21.5357 18.5526 21.5539 19.6455 21.5721 20.268C21.5903 20.8905 21.4386 21.2478 21.3825 21.8326C21.3263 22.4175 20.9455 22.9451 21.0032 23.6038C21.0608 24.2625 22.1032 24.3002 22.7101 24.3575C23.317 24.4148 23.2593 24.5459 22.9194 24.6409C22.5796 24.7358 21.5721 24.7539 21.6116 25.9598C21.651 27.1657 22.0288 30.0297 22.1244 30.8015C22.22 31.5732 21.5357 30.8768 21.6116 31.1029C21.6875 31.329 21.3461 30.9703 21.1382 31.8385C20.9303 32.7068 21.1959 32.5545 21.2899 32.6676C21.384 32.7806 21.4993 32.7806 21.4993 32.7806L21.2141 33.1755L21.12 33.6278L21.2717 33.9473L21.4234 34.08C21.4234 34.08 21.0441 34.4945 21.4417 34.9467C21.8392 35.3989 21.651 35.1909 21.6116 35.625C21.5721 36.0591 20.7771 39.2804 20.9865 40.6928C21.1959 42.1052 20.4934 42.5393 20.1899 43.1618C19.8865 43.7844 18.1234 46.5157 18.1993 47.1563C18.2752 47.797 18.0294 48.4753 17.8382 48.8325H17.8337ZM36.8568 55.7483C36.4199 56.5954 36.2879 58.4616 36.2879 58.4616H20.4509C20.4509 58.4616 20.281 58.3108 20.1474 57.9717C19.9199 57.6325 20.0898 55.3157 20.1474 54.8816C20.2051 54.4475 20.6967 52.8647 21.1337 52.7894C21.5706 52.714 22.1578 51.9603 22.2898 51.4327C22.4218 50.9052 22.8785 49.7565 23.1622 49.3405C23.4459 48.9245 23.9208 47.1171 23.9208 47.1171C23.5992 46.062 23.6553 46.7222 23.9785 45.5917C24.3017 44.4612 24.907 44.4612 25.0588 44.2728C25.2105 44.0843 25.2681 43.3502 25.6839 43.0849C26.0996 42.8197 26.5001 42.6508 26.6883 41.9725C26.7641 40.634 26.8021 40.5224 27.277 39.5231C28.0356 36.5656 28.4331 37.7519 28.8215 36.5656C29.2099 35.3778 29.3055 35.5677 29.3055 35.5677L29.6848 36.2641C30.0641 36.9605 30.1218 36.9801 30.5572 37.0178C30.9927 37.0555 31.2779 37.0555 31.4676 37.3012C31.6572 37.5469 32.0745 38.1875 32.472 38.8658C34.8237 42.4835 34.4444 41.7117 35.1272 41.7871C35.8099 41.8625 36.0375 41.8444 36.341 42.182C36.6823 42.5212 36.6065 44.1597 36.5109 44.4431C36.1892 44.6692 36.0178 45.2345 36.0178 45.2345C36.0178 45.2345 36.1316 48.2673 36.1695 48.626C36.0178 48.9456 36.567 50.1907 36.567 50.1907L36.6611 51.0197C37.2103 51.3212 37.1163 52.509 37.1542 53.1873C37.1921 53.8656 37.2877 54.9027 36.8508 55.7498L36.8568 55.7483ZM63.4966 58.4616H45.5703C45.5703 58.4616 45.4186 58.3485 45.2851 57.9913C45.1516 57.634 43.5691 57.0115 43.0942 56.8894C42.6208 56.7673 41.6817 55.2313 41.3585 54.9012C41.1491 54.5997 41.1309 54.3646 41.1309 54.3646L40.9503 51.3121C40.9503 51.3121 40.9215 51.086 41.0641 50.9263C41.2068 50.7665 41.4617 50.361 41.4343 50.0309C41.4055 49.7008 41.2826 48.3637 41.2068 48.1934C41.1309 48.0231 41.1597 47.7412 41.1491 47.5905C41.1385 47.4397 41.3297 46.9966 41.3767 46.8368C41.4237 46.677 41.8607 43.3412 41.8228 43.1257C41.7848 42.9086 41.8046 41.2038 41.5193 41.0244C41.2341 40.845 41.4617 40.0536 41.3676 39.9225C41.2735 39.7914 40.9306 39.9692 40.8077 39.5276C40.6848 39.0844 39.3846 36.0516 39.3846 36.0516L38.5212 34.2804C38.5212 34.2804 36.1877 30.9552 35.9131 30.7005C35.6385 30.4457 35.5717 28.8539 35.819 28.4485C36.0648 28.043 36.1892 28.5148 36.2166 28.5148C36.2439 28.5148 36.8811 28.9203 37.1557 28.6369C37.4303 28.3535 38.151 27.2426 38.1601 26.819C38.1692 26.3954 38.3695 22.1929 38.236 21.9954C38.189 21.798 38.0752 21.091 37.3166 20.8272C36.5579 20.5634 37.3348 20.2816 37.3166 19.8851C37.2983 19.4887 37.183 19.2068 37.4592 19.3952C37.7353 19.5837 40.8441 21.2975 41.2523 21.3548C41.6604 21.4121 41.7363 21.4211 42.02 21.4211C42.3037 21.4211 42.636 21.7693 42.7604 21.7226C42.8939 21.7226 43.3673 21.7407 44.3914 20.8936C45.4156 20.0464 45.587 20.1399 45.8328 19.2731C46.0786 18.4064 46.0028 17.1719 46.5444 17.0407C47.0861 16.9096 47.5488 17.3889 46.9905 15.6178C46.725 13.913 46.7917 13.8376 47.0375 13.818C47.256 13.7049 47.1892 13.7336 47.6823 13.1864C48.1754 12.6392 48.1846 12.6121 48.2134 12.5548C48.2422 12.4975 48.2422 12.3106 48.2422 12.3106C48.2422 12.3106 48.3939 12.2172 48.441 12.178C48.488 12.1388 48.7262 12.0649 48.7732 12.0649C48.8203 12.0649 48.6974 11.9323 48.925 11.9232C49.7777 11.9232 54.0366 11.9519 54.0366 11.9519V11.471C54.0366 11.471 54.0457 11.3113 54.1503 11.3203C54.255 11.3293 54.34 11.3384 54.3779 11.3866C54.4159 11.4333 55.44 11.4153 55.44 11.4153C55.44 11.4153 55.6206 11.2555 55.9422 11.2555C56.2639 11.2555 59.1102 11.2645 59.1102 11.2645C59.1102 11.2645 59.177 11.5283 59.3196 11.5283C59.4622 11.5283 59.6989 11.566 59.6898 11.4153C60.1632 11.4153 61.3967 11.4062 61.3967 11.4062C61.3967 11.4062 61.4635 11.4062 61.4543 11.0007C61.4635 10.6525 61.4726 10.7083 60.2694 10.7083C59.8324 10.7083 59.7475 10.6993 59.7475 10.6993C59.7475 10.6993 59.8142 10.5485 59.5381 10.5485C59.2619 10.5485 59.1299 10.6902 59.1299 10.7746C59.1299 10.859 59.007 10.85 59.007 10.85L55.7829 10.8214C55.7829 10.8214 55.6221 10.8033 55.6782 10.3315C55.7343 9.85966 55.5447 9.67124 55.393 9.77525C55.2412 9.87926 55.1274 9.92598 55.1077 9.95462C55.0895 9.98326 54.9378 9.80389 54.9181 9.64411C54.8999 9.48433 54.8892 7.95737 54.8892 7.92873C54.8892 7.90009 54.8043 7.67398 54.6996 7.74031C54.5949 7.80663 54.4143 7.71167 54.387 7.82472C54.3597 7.93777 54.3779 10.0285 54.3779 10.0285C54.3779 10.0285 54.208 10.1611 54.1124 10.0104C54.0168 9.85966 53.9228 9.94407 53.9425 9.7662C53.9607 9.58683 53.8287 9.45569 53.8287 9.45569H41.577C41.577 9.45569 41.539 8.87083 41.4435 8.91002C41.3479 8.94921 40.703 8.9673 40.703 8.9673L40.6848 8.0056C40.6848 8.0056 40.6272 7.72222 40.4193 7.89255C40.2297 7.91064 40.2494 8.73969 40.2297 8.83465C40.2099 8.92962 40.0597 8.92811 40.0597 8.92811V9.26727L39.377 9.34264C39.377 9.34264 38.4484 9.51146 38.3149 9.60642C38.1814 9.70139 37.6898 9.73907 37.6898 9.73907L37.4622 9.77676C37.4622 9.77676 37.3105 9.36223 37.3105 9.30646C37.3105 9.25672 37.2968 8.95223 37.2923 8.87234C37.2847 8.84973 37.2741 8.81054 37.2528 8.7412C37.177 8.47741 37.2149 8.2513 37.2149 8.2513C37.2149 8.2513 38.4105 7.81718 38.6183 7.44034C38.8262 7.0635 38.8277 5.63151 38.6366 5.04665C38.4454 4.46179 38.3331 4.29297 38.3331 4.14223C38.3331 3.9915 38.2755 3.5016 38.2755 3.5016C38.2755 3.5016 37.535 3.12476 37.1754 3.01171C36.8159 2.89866 36.2833 2.50222 36.2833 2.50222L36.3592 2.3138H63.492V58.4601L63.4966 58.4616Z" fill="#FF6A13"/>
<path d="M3.40157 75.1541V68.2956H13.5292C13.5292 68.2956 13.4533 66.318 11.5385 65.7331C11.141 65.6396 10.3627 65.6396 9.86957 65.6396H2.64295C2.64295 65.6396 0.139506 65.8477 0.101575 68.371C0.063644 70.8943 0.101575 75.1541 0.101575 75.1541C0.101575 75.1541 -0.183667 77.9804 4.10406 77.9804H10.7041C10.7041 77.9804 12.6385 77.9051 13.4351 76.0389C13.5868 75.5295 13.5292 75.1526 13.5292 75.1526H3.40157V75.1541Z" fill="#FF6A13"/>
<path d="M25.4896 70.4436C20.5646 70.4436 19.6983 70.4436 19.6983 70.4436H18.9897V68.2081H29.5604C29.5604 68.2081 29.4086 65.6336 26.6518 65.6396C23.895 65.6456 18.6104 65.6396 18.6104 65.6396C18.6104 65.6396 15.9052 65.721 15.9052 68.2081V70.6953C15.9052 70.6953 15.6275 73.1327 19.6482 73.1568C23.6689 73.1809 26.7535 73.1312 26.7535 73.1312V75.2912L15.9006 75.2415C15.9006 75.2415 16.107 76.8499 17.169 77.4272C17.5742 77.6789 18.3828 77.9804 18.3828 77.9804H26.9295C26.9295 77.9804 29.7364 77.7799 29.7622 75.1918C29.8562 71.9313 29.7439 70.2928 25.4881 70.4436H25.4896Z" fill="#FF6A13"/>
<path d="M33.9347 68.579H31.9441V70.6139H33.9347V68.579Z" fill="#FF6A13"/>
<path d="M33.9347 72.7996H31.9441V74.9476H33.9347V72.7996Z" fill="#FF6A13"/>
<path d="M49.8672 68.1071C49.8672 68.1071 49.8672 67.9564 49.8672 67.7484C49.8672 67.5404 49.582 67.2027 49.2027 66.5244C48.6717 65.8838 47.4579 65.6381 47.4579 65.6381C47.4579 65.6381 41.0854 65.6004 38.6199 65.6381C36.1544 65.6758 36.0027 68.1071 36.0027 68.1071V75.9273C36.4397 77.6789 38.2603 77.9894 38.2603 77.9894L39.1328 77.9804C39.1328 77.9804 44.2337 77.9985 47.0801 77.9804C49.9264 77.9623 49.8688 75.3998 49.8688 75.3998V70.8596C49.8688 70.8596 42.0368 70.8023 41.2584 70.8023C40.4801 70.8023 40.7456 70.7842 41.1067 71.6886C41.6377 72.6684 42.985 72.8945 42.985 72.8945L47.1757 72.9126L47.1939 75.5324H38.6594V68.1087H49.8688L49.8672 68.1071Z" fill="#FF6A13"/>
<path d="M65.7467 68.4584C65.7209 65.4693 62.738 65.6215 62.738 65.6215H54.8226C54.8226 65.6215 54.5996 65.6472 54.3173 65.7451C54.0898 65.7708 53.6346 65.9969 53.0778 66.4732C52.5209 66.951 52.2933 68.2323 52.2933 68.2323C52.2933 68.2323 52.3191 71.5229 52.2933 74.9401C52.2676 78.3573 55.9848 77.9879 55.9848 77.9879C55.9848 77.9879 57.8813 77.9789 62.028 77.9879C66.1746 77.997 65.7452 74.6627 65.7452 74.6627C65.7452 74.6627 65.771 71.4475 65.7452 68.4569L65.7467 68.4584ZM63.1674 75.5927H55.0244V67.9052H63.1674V75.5927Z" fill="#FF6A13"/>
</g>
<defs>
<clipPath id="clip0_607_1722">
<rect width="66" height="78" fill="white"/>
</clipPath>
</defs>
</svg>
