<?xml version="1.0" encoding="UTF-8" standalone="no"?>
<svg
   width="97"
   height="33"
   viewBox="0 0 97 33"
   fill="none"
   version="1.1"
   id="svg1447"
   sodipodi:docname="ufc.svg"
   inkscape:version="1.1.1 (3bf5ae0d25, 2021-09-20)"
   xmlns:inkscape="http://www.inkscape.org/namespaces/inkscape"
   xmlns:sodipodi="http://sodipodi.sourceforge.net/DTD/sodipodi-0.dtd"
   xmlns="http://www.w3.org/2000/svg"
   xmlns:svg="http://www.w3.org/2000/svg">
  <sodipodi:namedview
     id="namedview1449"
     pagecolor="#ffffff"
     bordercolor="#666666"
     borderopacity="1.0"
     inkscape:pageshadow="2"
     inkscape:pageopacity="0.0"
     inkscape:pagecheckerboard="0"
     showgrid="false"
     inkscape:zoom="11.195876"
     inkscape:cx="48.544659"
     inkscape:cy="16.479282"
     inkscape:window-width="1366"
     inkscape:window-height="705"
     inkscape:window-x="-8"
     inkscape:window-y="-8"
     inkscape:window-maximized="1"
     inkscape:current-layer="g1440" />
  <g
     clip-path="url(#clip0_607_1765)"
     id="g1440">
    <path
       d="M7.83225 0H19.3489C17.0607 8.07355 14.7862 16.1509 12.5009 24.2254C12.4037 24.5125 12.4008 24.8444 12.5806 25.1019C12.8711 25.534 13.423 25.7057 13.9263 25.7333C14.5248 25.7486 15.1223 25.7352 15.7218 25.74C16.3709 25.7362 17.0452 25.76 17.6622 25.5292C18.0887 25.3652 18.351 24.9522 18.4657 24.5335C20.7801 16.356 23.0858 8.17561 25.406 0H36.8546C34.4197 8.59144 31.9946 17.1848 29.5626 25.7772C29.3003 26.689 29.0535 27.6056 28.7814 28.5154C28.4306 29.6218 27.8516 30.6976 26.9314 31.4463C26.2513 32.0148 25.3992 32.3371 24.5403 32.5422C23.3257 32.8398 22.0714 32.9189 20.8258 33H5.99394C4.53068 32.9103 3.03146 32.5803 1.8111 31.7468C1.01049 31.2136 0.366302 30.4287 0.104935 29.5054C-0.0242904 29.1087 0.000971754 28.6871 0.00388662 28.277C0.00582987 27.7887 0.176835 27.3242 0.302175 26.8568C2.83131 17.9049 5.36238 8.95292 7.88958 0H7.83128H7.83225Z"
       fill="#383B43"
       id="path1432"
       style="fill:#ff6a13;fill-opacity:1" />
    <path
       d="M42.3026 -2.28053e-05H67.0517C66.3638 2.41489 65.6856 4.83362 65.0006 7.24949C56.7506 7.25139 48.5005 7.25044 40.2505 7.24949C40.9335 4.83267 41.6127 2.41489 42.3026 -0.000976562V-2.28053e-05Z"
       fill="#383B43"
       id="path1434"
       style="fill:#ff6a13;fill-opacity:1" />
    <path
       d="M78.2254 -1.50928e-05H97.0001C96.729 1.09681 96.3909 2.17741 96.0936 3.26756C95.7176 4.59519 95.3425 5.92282 94.9675 7.24949C90.9051 7.25045 86.8428 7.24949 82.7814 7.24949C82.1867 7.25426 81.5678 7.24949 81.0091 7.47553C80.5534 7.66438 80.3164 8.13267 80.2007 8.57903C78.719 13.8257 77.2344 19.0723 75.7536 24.3198C75.6458 24.646 75.7381 25.0189 75.9858 25.2602C76.3492 25.6246 76.8924 25.739 77.3947 25.739C81.8185 25.74 86.2433 25.739 90.6671 25.74C89.984 28.1597 89.3 30.5793 88.616 32.999H69.8122C68.4033 32.9113 66.9663 32.6061 65.7702 31.8383C64.9851 31.3452 64.3254 30.6299 64.0096 29.761C63.7201 29.0152 63.7444 28.1835 63.963 27.4234C66.0889 19.9049 68.2148 12.3864 70.3407 4.86796C70.6487 3.7616 71.1413 2.67146 71.9721 1.84551C72.521 1.29328 73.2177 0.897471 73.961 0.65617C75.3339 0.202181 76.7894 0.0915456 78.2245 -0.00192261L78.2254 -1.50928e-05Z"
       fill="#383B43"
       id="path1436"
       style="fill:#ff6a13;fill-opacity:1" />
    <path
       d="M38.8288 12.2548C47.0808 12.2539 55.3318 12.2548 63.5838 12.2548C62.8988 14.6774 62.2138 17.0999 61.5289 19.5215C57.0944 19.5234 52.6609 19.5215 48.2273 19.5225C46.9565 24.0147 45.6895 28.5069 44.4186 32.999H44.4973H32.9661C34.9249 26.0853 36.8749 19.1696 38.8298 12.2539L38.8288 12.2548Z"
       fill="#383B43"
       id="path1438"
       style="fill:#ff6a13;fill-opacity:1" />
  </g>
  <defs
     id="defs1445">
    <clipPath
       id="clip0_607_1765">
      <rect
         width="97"
         height="33"
         fill="white"
         id="rect1442" />
    </clipPath>
  </defs>
</svg>
