<svg width="53" height="10" viewBox="0 0 53 10" fill="none" xmlns="http://www.w3.org/2000/svg">
<path d="M3.08849 2.17171C3.77853 2.17171 4.3682 2.42682 4.85332 2.93285C5.33844 3.43888 5.58518 4.05364 5.58518 4.76877C5.58518 5.49227 5.34262 6.10703 4.85332 6.61306C4.37238 7.11491 3.78271 7.36165 3.08849 7.36165C2.27299 7.36165 1.64986 7.03545 1.22329 6.38305V7.23201H0.365967V0.323242H1.22329V3.14613C1.64986 2.49791 2.27299 2.17171 3.08849 2.17171ZM2.97975 6.5336C3.47324 6.5336 3.88726 6.36632 4.22183 6.03175C4.55639 5.68464 4.72368 5.26226 4.72368 4.76877C4.72368 4.26693 4.55639 3.84872 4.22183 3.51416C3.88726 3.17123 3.47324 2.99976 2.97975 2.99976C2.47791 2.99976 2.06388 3.17123 1.72514 3.51416C1.39057 3.84872 1.22329 4.26693 1.22329 4.76877C1.22329 5.26226 1.39057 5.68464 1.72514 6.03175C2.06388 6.36632 2.48209 6.5336 2.97975 6.5336Z" fill="#FFD412"/>
<path d="M8.43736 6.16577L9.85926 2.29736H10.7793L8.76774 7.53748C8.55028 8.09788 8.25335 8.52445 7.87278 8.81719C7.49222 9.10994 7.06146 9.23958 6.57634 9.20613V8.40735C7.18274 8.45335 7.62604 8.11879 7.91042 7.39947L7.99824 7.21128L5.84448 2.29736H6.76453L8.43736 6.16577Z" fill="#FFD412"/>
<path d="M13.4934 0.323242H18.4784V1.19311H16.4376V7.23201H15.5301V1.19311H13.4976V0.323242H13.4934Z" fill="#FFD412"/>
<path d="M19.2939 4.91514V0.323242H20.214V4.87332C20.214 5.36681 20.3604 5.75574 20.6531 6.04012C20.9459 6.3245 21.3599 6.4625 21.891 6.4625C22.4221 6.4625 22.8361 6.32031 23.1289 6.04012C23.4216 5.75992 23.568 5.37099 23.568 4.87332V0.323242H24.4755V4.91096C24.4755 5.65955 24.233 6.25759 23.7562 6.6967C23.2753 7.13582 22.6563 7.35747 21.891 7.35747C21.1215 7.35747 20.4942 7.13582 20.0174 6.6967C19.5365 6.26177 19.2939 5.66373 19.2939 4.91514Z" fill="#FFD412"/>
<path d="M29.8243 3.65216C30.1463 3.81108 30.4015 4.02855 30.5855 4.31293C30.7695 4.59731 30.8615 4.91932 30.8615 5.27898C30.8615 5.83101 30.6691 6.29522 30.2802 6.67161C29.8912 7.04799 29.4187 7.23619 28.8583 7.23619H25.8765V0.323242H28.6408C29.1887 0.323242 29.6445 0.503072 30.0125 0.866911C30.3889 1.23075 30.5771 1.67823 30.5771 2.20935C30.5771 2.8283 30.3262 3.30923 29.8243 3.65216ZM28.6408 1.18475H26.7965V3.29669H28.6408C28.9294 3.29669 29.1719 3.19632 29.3727 2.9914C29.5692 2.78648 29.6696 2.53555 29.6696 2.24281C29.6696 1.95425 29.5692 1.7075 29.3643 1.50258C29.1636 1.2893 28.9252 1.18475 28.6408 1.18475ZM26.7965 6.37468H28.8583C29.1677 6.37468 29.427 6.26595 29.6361 6.04848C29.8452 5.83101 29.9498 5.56336 29.9498 5.24971C29.9498 4.94023 29.8411 4.67677 29.6236 4.4593C29.4187 4.24183 29.1636 4.1331 28.8541 4.1331H26.7923V6.37468H26.7965Z" fill="#FFD412"/>
<path d="M32.8648 4.17492V6.36632H36.0725V7.23619H31.949V0.323242H36.0265V1.19311H32.869V3.31341H35.7797V4.17074H32.8648V4.17492Z" fill="#FFD412"/>
<path d="M36.616 0.323242H41.601V1.19311H39.5601V7.23201H38.6526V1.19311H36.6202V0.323242H36.616Z" fill="#FFD412"/>
<path d="M43.4286 4.17492V6.36632H46.6362V7.23619H42.5127V0.323242H46.5902V1.19311H43.4328V3.31341H46.3435V4.17074H43.4286V4.17492Z" fill="#FFD412"/>
<path d="M51.8555 0.323242H52.8801L50.4336 4.43839V7.23201H49.5177V4.43002L47.0796 0.323242H48.1084L49.9819 3.56016L51.8555 0.323242Z" fill="#FFD412"/>
</svg>
