<svg width="95" height="23" viewBox="0 0 95 23" fill="none" xmlns="http://www.w3.org/2000/svg">
<path d="M0.970947 1.27734H16.3693V6.35018H11.2965V21.8071H6.04797V6.35018H0.975127V1.27734H0.970947Z" fill="#FFD412"/>
<path d="M27.1631 22.2461C24.0725 22.2461 21.5131 21.2298 19.4806 19.1973C17.4649 17.1649 16.4612 14.6138 16.4612 11.5442C16.4612 8.47454 17.4691 5.93185 19.4806 3.92028C21.4922 1.86689 24.0558 0.842285 27.1631 0.842285C29.0199 0.842285 30.7429 1.2814 32.3237 2.16382C33.9045 3.04623 35.1508 4.22557 36.0499 5.71438L31.504 8.32399C31.1109 7.60049 30.5296 7.02755 29.7601 6.60934C28.9864 6.19114 28.1208 5.97785 27.1631 5.97785C25.5404 5.97785 24.2105 6.49643 23.1734 7.53358C22.1781 8.57073 21.6762 9.90899 21.6762 11.5525C21.6762 13.2337 22.1739 14.5845 23.1734 15.6008C24.1896 16.617 25.5195 17.1272 27.1631 17.1272C28.1208 17.1272 28.9864 16.9181 29.7601 16.4957C30.5338 16.0775 31.1151 15.492 31.504 14.7518L36.0499 17.3907C35.1508 18.8962 33.9129 20.0839 32.3405 20.9538C30.7638 21.8111 29.0408 22.2461 27.1631 22.2461Z" fill="#FFD412"/>
<path d="M55.0533 19.1681C52.9622 21.2215 50.4196 22.2461 47.4294 22.2461C44.3974 22.2461 41.8463 21.2215 39.7762 19.1681C37.7019 17.0938 36.6689 14.5553 36.6689 11.5442C36.6689 8.53309 37.7061 6.00294 39.7762 3.94955C41.8505 1.87525 44.4016 0.842285 47.4294 0.842285C50.4405 0.842285 52.9832 1.87943 55.0533 3.94955C57.1443 6.00294 58.1898 8.53309 58.1898 11.5442C58.194 14.5302 57.1485 17.0729 55.0533 19.1681ZM43.469 15.5589C44.5438 16.5961 45.8653 17.1147 47.4294 17.1147C48.9935 17.1147 50.315 16.5961 51.3898 15.5589C52.4437 14.5051 52.9748 13.1626 52.9748 11.54C52.9748 9.89644 52.4479 8.56655 51.3898 7.55031C50.3359 6.49643 49.0144 5.96531 47.4294 5.96531C45.8444 5.96531 44.527 6.49225 43.469 7.55031C42.4151 8.56655 41.884 9.89644 41.884 11.54C41.884 13.1626 42.4151 14.5009 43.469 15.5589Z" fill="#FFD412"/>
<path d="M60.6279 1.27734H68.9879C71.8024 1.27734 74.1694 2.26431 76.0848 4.23824C78.0002 6.21217 78.9579 8.64613 78.9579 11.5401C78.9579 14.455 78.0002 16.8973 76.0848 18.8713C74.1862 20.8285 71.8233 21.8029 68.9879 21.8029H60.6279V1.27734ZM66.0228 16.7301H68.9837C70.393 16.7301 71.5557 16.2617 72.4757 15.3207C73.3749 14.363 73.8265 13.1 73.8265 11.5359C73.8265 9.95094 73.3749 8.7005 72.4757 7.78045C71.5766 6.82276 70.414 6.34182 68.9837 6.34182H66.0228V16.7301Z" fill="#FFD412"/>
<path d="M86.6403 13.857V16.8764H94.5904V21.8029H81.3918V1.27734H94.4441V6.17454H86.6403V9.01834H93.708V13.857H86.6403Z" fill="#FFD412"/>
</svg>
