<svg width="20" height="20" viewBox="0 0 20 20" fill="none" xmlns="http://www.w3.org/2000/svg">
<path d="M18.1268 13.1015C17.5543 13.1007 16.983 13.0469 16.4204 12.9406C15.8309 12.8388 15.2627 12.6534 14.6834 12.515C14.4587 12.4562 14.2237 12.4494 13.996 12.4951C13.7683 12.5408 13.554 12.6377 13.3692 12.7787C12.6923 13.2827 12.0104 13.7837 11.3579 14.3182C11.0885 14.5402 10.9046 14.53 10.6058 14.3651C8.41309 13.1673 6.62836 11.3396 5.48125 9.11716C5.44466 9.0469 5.4101 8.99294 5.47413 8.91351C6.03517 8.18141 6.58502 7.44015 7.1491 6.7111C7.48552 6.27632 7.61764 5.80285 7.47637 5.2693C7.30359 4.61764 7.11454 3.97005 7.01697 3.30108C6.94249 2.72097 6.89737 2.13746 6.8818 1.55279C6.8677 1.17897 6.72394 0.821768 6.47525 0.542712C6.20795 0.237246 5.85629 0.0875671 5.47108 0H1.40563C1.25318 0.0468382 1.08751 0.0234191 0.936071 0.101822C0.391301 0.373687 0.0508182 0.786067 0 1.4082V2.79196C0.0125076 3.33015 0.0658519 3.8666 0.15957 4.39668C0.720741 8.02274 2.34853 11.3988 4.83484 14.0932C7.75547 17.2648 11.6922 19.312 15.962 19.8798C16.8031 19.978 17.6502 20.0161 18.4968 19.9938C18.6925 20.0002 18.8871 19.9608 19.0649 19.8787C19.6087 19.6079 19.9532 19.1976 20 18.5724V14.5127C19.7784 13.4843 19.0355 13.078 18.1268 13.1015Z" fill="#FFD412"/>
</svg>
