<svg width="20" height="17" viewBox="0 0 20 17" fill="none" xmlns="http://www.w3.org/2000/svg">
<path d="M19.9902 0.692059C19.9381 1.27189 19.7815 1.6494 19.6813 2.12987C19.1219 4.87948 18.5667 7.63046 18.0156 10.3828C17.6331 12.2811 17.2386 14.1773 16.8738 16.0792C16.7486 16.7349 15.8917 17.3629 15.0641 16.7508C12.6944 14.9969 10.3488 13.2118 7.99164 11.4416C7.87423 11.3535 7.8497 11.312 7.97859 11.1988C9.85442 9.54736 11.7268 7.89203 13.5957 6.23277C14.6111 5.33365 15.6263 4.43419 16.6411 3.53438C16.7804 3.41042 16.9307 3.29415 17.0179 3.1246C17.1139 2.93662 17.0387 2.82752 16.8227 2.83878C16.6187 2.84954 16.4574 2.95762 16.2904 3.06006C14.9618 3.88918 13.6336 4.71881 12.3057 5.54895C9.9748 7.0064 7.64288 8.46435 5.30992 9.92282C5.25152 9.96563 5.18292 9.99305 5.11067 10.0025C5.03841 10.0119 4.9649 10.003 4.89715 9.97661C3.55133 9.52431 2.20238 9.08227 0.854475 8.6351C0.559637 8.53726 0.293499 8.39384 0.116597 8.12953C-0.0603063 7.86523 -0.0368251 7.61731 0.193305 7.38425C0.356118 7.22034 0.558589 7.11943 0.772021 7.03747C6.6914 4.75296 12.6109 2.46913 18.5307 0.185983C18.7733 0.092246 19.0201 0.0118268 19.2837 0.00209461C19.6959 -0.0127598 19.9099 0.043585 19.9902 0.426215C20.0033 0.51437 20.0033 0.603904 19.9902 0.692059Z" fill="#FFD412"/>
</svg>
